<svg width="190" height="45" viewBox="0 0 190 45" xmlns="http://www.w3.org/2000/svg" xmlns:xlink="http://www.w3.org/1999/xlink"><title>logo head black</title><defs><path id="a" d="M0 .65v28.116h18.802V.65H0z"/></defs><g fill="none" fill-rule="evenodd"><path d="M131.416 18.962c.385.033.768.062 1.158.11a33.266 33.266 0 0 0-1.158-.11M78.557 3s1.198 1.38-.072 4.46c-1.27 3.078-4.638 8.14-2.365 9.844 0 0 .171-1.899 2.429-5.055 2.257-3.156 6.016-9.152.008-9.25m6.827 19.351c-.42 0-.812-.117-1.106-.448-.647-.73-.584-2.171-.116-3.059.17-.324.536-.846 1.123-.837.035 0 .07.003.107.007.528.065.697.305.785.507.311.713-.02 2.166-.793 3.83zm4.294-1.552c-1.13.79-2.616 1.178-2.933 1.254.603-1.483.91-2.963.464-3.984-.203-.466-.66-1.048-1.68-1.172-.968-.12-1.828.4-2.365 1.423-.653 1.243-.73 3.202.271 4.33.256.288.703.65 1.4.78-.382.695-.83 1.407-1.328 2.1-1.46 2.026-2.777 2.284-3.412 2.268-.561-.596-.243-2.76.11-4.723.413-2.294 3.05-5.655 3.05-5.655-4.62-.074-6.226 4.665-6.275 7.716-.038 2.331 1.3 3.312 2.344 3.653l-.006.016c.023.008.173.058.41.09.161.03.309.046.43.048a.792.792 0 0 0 .253-.032c.977-.076 2.483-.602 4.01-2.723a22.457 22.457 0 0 0 1.701-2.786c.26-.051.542-.13.843-.243.3-.07 2.009-.491 3.359-1.437l-.646-.923z" fill="#1D1D1B"/><path d="M95.428 22.516c-.407.004-.811-.117-1.105-.449-.648-.73-.584-2.17-.117-3.058.17-.325.537-.847 1.123-.837.035 0 .07.003.107.008.528.064.698.304.786.506.311.713-.02 2.167-.794 3.83zm4.294-1.551c-1.128.79-2.615 1.177-2.933 1.254.603-1.485.911-2.964.464-3.984-.203-.467-.66-1.049-1.679-1.173-.97-.123-1.828.4-2.365 1.423-.653 1.242-.73 3.201.271 4.33.256.289.702.65 1.4.78-.382.695-.83 1.407-1.329 2.1-1.458 2.027-2.776 2.284-3.411 2.269-.562-.596-.243-2.761.11-4.723.413-2.295 3.049-5.656 3.049-5.656-4.62-.074-6.226 4.666-6.274 7.716-.038 2.33 1.3 3.312 2.343 3.652l-.005.016c.023.01.171.057.406.09.163.031.312.047.434.05a.814.814 0 0 0 .254-.033c.977-.077 2.482-.602 4.009-2.723a22.541 22.541 0 0 0 1.7-2.786c.26-.051.542-.13.843-.242.3-.07 2.009-.492 3.359-1.437l-.646-.923z" fill="#1D1D1B"/><g transform="translate(60 4.616)"><mask id="b" fill="#fff"><use xlink:href="#a"/></mask><path d="M18.691 22.146a4.839 4.839 0 0 1-.34-1.008c-1.488 1.58-3.433 3.61-4.818 4.924-.578.55-1.102.909-1.563 1.144-1.79-4.039 4.713-11.621 4.713-11.621-3.995-.065-6.29 2.81-7.528 5.54-1.483 1.026-3.195 1.9-4.275 1.453-2.238-.928-.765-10.764 2.69-15.45 3.456-4.687 5.53-5.123 6.794-4.961 1.266.161 3.46.868 2.469 4.155l1.3-2.076S17.794.719 13.543.651C9.293.582 3.533 4.2.87 12.185-1.794 20.17 2.35 24.04 4.153 24.069c.893.014 2.593-.087 4.207-.786-.334 1.147-.472 2.073-.477 2.442-.022 1.361.863 3.019 2.25 3.04.201.004.386-.016.563-.046.888-.052 2.147-.445 3.614-1.84 1.288-1.223 3.052-3.054 4.493-4.577a.496.496 0 0 1-.111-.156" fill="#1D1D1B" mask="url(#b)"/></g><path d="M120.478 33.313a6.297 6.297 0 0 1-1.96-.278l-.072-.023a6.04 6.04 0 0 1-.254-.084 5.238 5.238 0 0 1-1.146-.62c-.386-.278-.736-.56-1.042-.834-.83-1.012-1.05-2.364-.651-4.02.576-2.392 2.657-5.037 5.03-6.418a20.33 20.33 0 0 1 4.157-1.23c1.32 2.037 1.64 4.789 1.62 6.12-.038 2.34-1.519 7.446-5.682 7.387zm14.664-14.397c-2.84-.567-5.592-.761-8.173-.577-.809-.6-1.613-1.13-2.324-1.6-2.16-1.424-3.72-2.454-3.694-4.136.04-2.439 2.393-4.786 4.156-4.758.879.03 1.623.397 2.094 1.033.087.118.16.246.226.38.481.751.57 1.69.372 2.621-1.193 2.521-2.16 5.119-.655 6.246 0 0 .171-1.899 2.429-5.055 2.258-3.157 6.016-9.152.007-9.25 0 0 1.199 1.382-.071 4.46-.183.444-.411.93-.658 1.44 0-.002.16-3.561-4.52-3.636a6.65 6.65 0 0 0-1.647.175 7.495 7.495 0 0 0-2.773 1.099c-.228.189-.438.38-.616.565-1.537 1.61-2.155 3.662-2.079 4.888.15 2.435 2.084 3.738 5.155 5.052a4.38 4.38 0 0 1 1.346.924c-.137.028-.273.056-.406.087-6.36 1.467-9.54 5.147-10.014 6.6-.682 2.085-.945 4.85 3.092 7.75.031.022.064.039.096.06.976.473 1.95.756 2.99.943 1.663.109 3.268-.061 4.837-.628l.04-.017c3.048-.997 4.886-2.283 5.462-3.824 1.203-3.213 1.137-7.553-1.575-10.338 2.146-.06 4.383.142 6.682.6l.276.056.22-1.105-.275-.055z" fill="#1D1D1B"/><path d="M146.09 24.938c-1.952 4.218-4.114 3.98-4.645 3.845-.688-.451-.355-2.737.016-4.8.413-2.294 3.05-5.656 3.05-5.656-4.622-.075-6.227 4.665-6.275 7.716-.009.487.044.913.14 1.289-1.43 1.626-2.713 1.475-3.105 1.376-.689-.452-.355-2.738.016-4.801.413-2.294 3.05-5.656 3.05-5.656-4.621-.074-6.227 4.665-6.276 7.716-.04 2.577 1.598 3.504 2.661 3.74l-.002.005c.046.02.42.168.995.178.787.013 1.95-.242 3.164-1.447.565.817 1.39 1.2 2.018 1.339l-.003.006c.046.019.42.168.995.177 1.235.02 3.396-.606 5.224-4.553l-1.023-.474zm22.042 1.71c-1.741 2.839-3.476 2.644-3.943 2.525-.688-.451-.355-2.737.017-4.801.412-2.294 3.048-5.655 3.048-5.655-4.62-.075-6.225 4.665-6.275 7.715-.041 2.577 1.597 3.504 2.662 3.74l-.003.005c.046.02.42.168.995.178.937.015 2.406-.345 3.86-2.24-.29-.41-.39-.934-.361-1.467" fill="#1D1D1B"/><path d="M179.504 25.496c-.708 1.057-1.781 2.34-2.75 3.11-.484.416-.758.252-.775-.799-.017-1.054 1.785-6.157 1.7-7.458-.085-1.302-1.558-1.373-1.558-1.373v.001c-.556-.044-1.283.285-2.206 1-.906.7-2.746 3.524-4.158 5.814.912-3.59 2.466-6.941 2.466-6.941-3.661-.06-5.054 3.3-5.045 7.173.007 3.873 1.936 4.35 1.936 4.35-.01-.456.014-.936.062-1.428 1.19-2.03 2.805-4.652 4.028-6.377.493-.666.843-.986 1.332-1.286.699-.428.477.957-.042 2.6-.518 1.644-.575 4.096-.575 4.096l.003-.006c-.073.76-.02 1.378.223 1.8.182.319.462.527.81.602.114.025.23.038.346.04 2.132.033 4.637-3.54 5.14-4.292l-.937-.626zm-71.437-13.084c1.59-3.58 3.256-5.253 3.696-5.376.69 1.144-2.333 9.733-5.928 15.35.049-4.525 1.523-8.38 2.232-9.974m4.224-6.379a1.016 1.016 0 0 0-.302-.106l-.065-.017c-1.3-.156-2.963 2.442-3.62 3.563-2.252 3.842-3.96 9.157-3.587 14.535-3.102 4.188-4.457 4.03-4.564 4.011a.53.53 0 0 0-.15-.036c-.426-.586-.244-2.248.036-3.923 1.583-5.519 4.783-5.765 4.783-5.765-.86-.846-2.167-.716-3.095-.467-.114.027-.221.062-.33.096a8.08 8.08 0 0 0-.254.087c-.103.039-.207.076-.306.12-.134.057-.216.096-.216.096l-.001.014c-2.642 1.341-3.64 4.751-3.678 7.137-.05 3.052 2.26 3.793 3.178 3.808.09.001.16-.01.223-.025.57-.032 1.458-.366 2.724-1.54l-.011.015c.504-.402 1.154-1.005 1.884-1.75.443 2.71 1.456 5.394 3.247 7.87a.565.565 0 0 0 .913-.66c-1.943-2.687-2.842-5.552-3.141-8.285 3.262-3.554 7.452-9.15 8.245-13.022.847-4.144-1.077-5.408-1.913-5.756m44.755 16.636c.15-4.3 1.538-7.922 2.22-9.454 1.632-3.673 3.342-5.338 3.706-5.393.001.001.12.12.144.634.118 2.677-2.522 9.808-6.017 14.155l-.053.058m6.13-15.96l.003.013-.056-.01c-1.305-.146-2.962 2.442-3.62 3.564-2.1 3.58-3.722 8.44-3.632 13.436-1.18.796-2.203.738-3.146.68-.813-.355 1.544-3.471 1.565-4.739.016-1.01-1.074-1.203-1.519-1.24a1.578 1.578 0 0 0-.181-.01h-.005c-.409.005-.808.155-.993.228-1.34.525-2.663 2.425-3.734 4.412a46.932 46.932 0 0 1 1.767-4.557c-3.661-.058-5.053 3.3-5.045 7.174.008 3.873 1.937 4.35 1.937 4.35-.01-.423.01-.867.051-1.322l.01.004c.739-2.043 2.935-7.207 4.89-8.689.842-.217.527-.305-.421 2.028-.956 2.35.63 3.226.63 3.226.187.128.434.227.77.247l.208.012c.918.059 2.023.122 3.275-.527.256 3.279 1.29 6.575 3.456 9.57a.562.562 0 0 0 .786.127.564.564 0 0 0 .127-.787c-2.236-3.094-3.1-6.422-3.244-9.514.103-.11.205-.228.308-.344l-.037.059c1.11-.613 2.138-1.416 2.948-2.379.427-.506.813-1.053 1.265-1.538.066-.07.134-.14.203-.21 1.79-2.564 3.274-5.24 3.712-7.385 1.07-5.229-2.278-5.879-2.278-5.879" fill="#1D1D1B"/><path d="M185.5 26.544a.686.686 0 0 1-.213-.273c-.178.273-.363.544-.557.813-1.457 2.025-2.775 2.285-3.41 2.27-.563-.596-.244-2.761.11-4.724.411-2.294 3.048-5.656 3.048-5.656-4.62-.074-6.226 4.666-6.275 7.716-.036 2.283 1.246 3.272 2.279 3.633.021.01.036.027.06.036.022.009.171.057.405.089.164.032.312.048.435.05a.792.792 0 0 0 .254-.033c.977-.076 2.483-.603 4.009-2.722.087-.123.178-.253.271-.389-.046-.315-.16-.619-.416-.81M170 6.76s.734 1.28-.753 3.52c-1.488 2.24-4.948 5.722-3.414 7.427 0 0 .433-1.477 2.715-3.624 2.282-2.146 6.197-6.307 1.453-7.324M149.73 30.774s.387-1.424 3.022-1.955c2.635-.532 7.545-.549 7.666-2.839 0 0-1.35.739-4.482.643-3.131-.095-8.842.08-6.207 4.151" fill="#1D1D1B"/><path d="M175.884 43.113c-1.414-.038-1.528-.61-1.566-.798-.382-1.926 3.538-6.583 8.22-9.625-1.274 4.85-3.092 9.69-6.654 10.423M188.16 19.09l-.079.008c-.03.003-.057.004-.088.008v.002c-.61.077-1.197.35-1.537 1.026-.94 1.873-1.78 3.578-3.116 9.279-.132.562-.268 1.139-.41 1.72-5.025 3.004-10.289 8.522-9.716 11.4.148.75.727 1.655 2.64 1.706h.04c4.256.069 7.338-6.87 9.372-13.055l.422-1.324.013-.04c.002-.038-.006-.073.004-.114.292-1.23.611-2.363.995-3.562.292-.913.428-1.824.851-2.666.04-.129.075-.26.12-.386l-.028.036c.943-2.965 1.985-3.49 2.072-3.528l.261-.07s-.24-.584-1.816-.44m-5.301.077s2.72-.838 3.362.59c0 0-3.48-.332-4.792 4.873l-.7-2.522 2.13-2.941z" fill="#1D1D1B"/><path fill="#00A0A8" d="M34.988 7.957L29.54 6.473l-.26.917 4.66 2.756 1.36-.933 2.936 4.894.568-1.025 3.091 3.364 1.596-6.173-8.503-2.316m-33.138.08c.155.537.312 1.07.471 1.595.127-.13.26-.25.393-.364.029-.024.056-.049.085-.072.13-.107.261-.207.394-.3l.086-.058a6.87 6.87 0 0 1 .358-.227c.026-.016.052-.033.079-.048a7.583 7.583 0 0 1 .519-.27c.125-.058.25-.115.373-.165L3.55 7.705l-1.7.332"/><path d="M29.617 5.24l-.028 1.93s11.278 3.713 13.506 5.105l.939-2.905-14.417-4.13M3.74 6.473c-.994.227-1.738.43-2.199.566.094.341.19.675.286 1.01l1.7-.331 1.06.421a8.778 8.778 0 0 1 1.288-.414c-.588-.507-1.47-.978-2.057-1.22l-.078-.032m30.229 26.276c.23-.358.477-.722.72-1.092.28-.542.573-1.079.887-1.598.347-.574.655-1.223 1.077-1.752-.01-.027-.017-.055-.028-.082-.192-.165-.377-.34-.585-.485-.41.09-.768.384-1.171.502a.292.292 0 0 1-.111.01c-.701.865-1.219 1.958-1.747 2.927-.27.496-.577.95-1.03 1.228l-.09.118c-.03-.003-.062 0-.092-.001-.213.182-.464.268-.714.422a5.27 5.27 0 0 0-.544.39 1.157 1.157 0 0 0-.027.134.297.297 0 0 1 .068.08c.061.112.13.218.202.32.396.247.733.574 1.1.862.036-.009.072-.016.106-.026a.879.879 0 0 0 .245.1c.412-.33.759-.732 1.178-1.048a.828.828 0 0 0-.043-.123c.214-.282.407-.588.599-.886" fill="#00777C"/><path d="M36.557 17.66c.169-.099.309-.247.422-.403-.037-.547-.256-1.077-.917-1.23v.001c.45.735.495 1.633.495 1.633m-.737 1.779c-1.419.812-3.446.477-3.446.477 2.043-.074 2.781-1.424 2.781-1.424s-1.955 1.235-4.333.219c0 0 1.069 3.79 4.998.729m-3.844-2.189a4.381 4.381 0 0 1 .03-.608c-.238.078-.568.151-.876.106.433.33.846.502.846.502m.348 6.035s-.832-.692-1.797-.787l-.37.15c-.003.003-.268.116-.568.345.73-.072 1.552-.096 2.057.07l.678.222m-4.057-.561c.193-.236.404-.435.607-.594-.566-.54-.922-1.242-1.134-1.789 0 0-.019 1.497.527 2.383m9.524.062c-.147.42-.51.669-.823.812 0 0 .801.213 1.13-.218 0 0 2.27-.04 3.168-.444-1.08.682-5.15 3.182-8.147 4.073 0 0 .269-2.244 1.205-2.642 0 0-1.582-.358-2.762.86.616-.247 1.38-.456 2.006-.322 0 0-2.92 1.096-3.355 2.458l-.052-1.03c-.035-.695.214-1.52.443-2.119-.668.01-1.58.128-2.209.248l-.305.058a5.824 5.824 0 0 0-.123.996s1.016-.585 1.675-.467c0 0-.46 1.617-.188 3.229 0 0-.27-.497-2.022-.71 2.133 1.57 2.73 4.267 2.878 5.237.172.096.398.238.655.434.688-.75 2.67-3.095 2.904-5.407l.038-.373.348-.138c3.318-1.314 7.116-3.099 7.639-3.762.003-.51-.02-.855-.039-1.061-1.606.437-4.064.288-4.064.288m5.178-2.356c-.53-.08-1.22-.269-1.65-.706.045.302.2.672.654.902 0 0-.45 1.196-4.062 1.604.008.122.004.2.004.2 2.86.03 4.524-.941 4.524-.941.295-.222.667-.606.482-1.038l.048-.02m-30.275 8.003c1.327-1.148 2.061-2.876 2.438-4.087-.75.897-2.2 1.93-4.96 2.855a62.696 62.696 0 0 0 3.603 5.426c-.528-2.77 1.439-4.767 1.439-4.767-1-.237-2.52.573-2.52.573m.81-4.252c-.068.221-.15.453-.25.689.72-.415 1.479-.996 1.944-1.757-.472.691-1.216.962-1.694 1.068m-.957-1.068c-2.264.798-3.058 2.138-3.3 2.697.195.346.391.687.588 1.022l1.41-1.27c.76-.683 1.127-1.71 1.302-2.449m19.211 15.182c-.208.297-.515 1.173-1.087 1.202-.572.029-1.068-.966-1.273-.605 0 0-1.83-8.406-9.364-2.693 1.881-.144 6.491-.022 8.551 4.284l.16.333-1.21 1.648c.303.176.706.336 1.079.295.363-.04.68-.265.97-.684l.173-.25.303-.016c.063-.004 1.6-.106 1.63-1.227l.012-.452.436-.124c-.004 0 .217-.086.361-.395.103-.221.179-.577.104-1.132-.363-.185-.744-.33-.845-.184m-7.122-17.339c-.524.225-.748.474-.761.489l-.887 1.014-.195-1.325-.001-.013c-.533 1.012-1.246 2.123-2.141 3.009l1.447-.073a3.9 3.9 0 0 0 .673-.947l.475.709s.338-1.005.738-1.28c0 0 .467 2.302 1.132 2.842 0 0-.366-1.425-.407-2.73a6.314 6.314 0 0 1-.073-1.695m-5.01 4.623l-2.366.12 1.274.844c.376-.356.748-.682 1.092-.964m3.013-7.559c.116-.74.316-1.402.573-1.996a4.206 4.206 0 0 0-.412.044c-.186.578-.63 1.637-1.533 2.425.114.597.228 1.497.122 2.376a17.756 17.756 0 0 0 1.25-2.849m-1.304-1.581c-.133.032-.263.05-.39.057-.798.04-1.444-.392-1.815-.78-.026.268-.03.493.006.62.13.45.878 1.203 1.579 1.447.284-.4.547-.858.736-1.372l-.029.007-.087.021m-.259 9.448c-.792.581-2.15 1.664-3.2 2.962.543-.067 1.155-.111 1.702-.075.2-.63.658-1.83 1.498-2.887m4.814-11.964c.032-.028 2.642-2.375 4.126-2.45 0 0-.278-.433-.755-.408 0 0 .979-1.405 1.173-2.45a5.62 5.62 0 0 0-1.002-.296 25.839 25.839 0 0 1-1.374 3.325c.312-.127.508-.185.52-.188 0 0-1.41.885-2.688 2.467m-8.948 16.271l-.298.068c.417.116 1.075.305 1.597.476.269-.322.531-.605.772-.844-.72.044-1.529.177-2.07.3m2.061-17.641c.67-3.313 3.41-4.364 3.444-4.377l.128-.032c1.104-.15 2.046.096 2.802.737.745.63 1.17 1.543 1.41 2.357.21-.42.44-.907.668-1.43-.32-.795-1.036-2.275-2.25-3.245 0 0 .137.822.062 1.24 0 0-2.83-2.406-5.193-1.873 0 0 .86.626 1.191 1.502 0 0-4.535-1.46-8.154.698 0 0 3.292.201 4.734 2.255 0 0-3.634 1.033-5.209 3.711 2.346-1.022 5.235-1.42 6.367-1.543m-8.892.697c-2.246.977-4.383 2.88-5.18 3.635a81.05 81.05 0 0 0 1.223 2.898c.199-1.237.973-4.07 3.957-6.533m-.882-4.85s-.81-2.157-3.506-2.547c.742.453 1.559 1.09 1.878 1.837l.34.796-.864.06c-.028.003-2.871.243-4.304 2.274a92.248 92.248 0 0 0 1.386 4c-.073-1.777.475-5.015 5.07-6.42m9.107 12.527c-2.39-3.768-5.392-1.386-5.392-1.386 3.37-.775 5.392 1.385 5.392 1.385m7.246-2.069s1.105-2.732 3.972-3.37c0 0-4.028-.897-3.972 3.37" fill="#EEA52D"/><path d="M27.754 40.057c.056-.583-.526-1.108-1.102-.97-.136.033-.26.085-.378.145-2.57-2.244-6.334-1.551-6.529-1.513l-.805.156.073-.817c.065-.72.178-1.399.318-2.027-.387-.85-.603-2.07.022-3.593-.98 1.13-2.12 2.898-2.4 5.213a48.021 48.021 0 0 0 5.658 5.398.935.935 0 0 0 .2.507c.394.51.943.773 1.578.832.417.039.797-.239.937-.621l.012-.029a.85.85 0 0 0 .729-.395l.494-.722c.04-.06.18-.28.295-.464.526-.139.847-.57.898-1.1" fill="#EEA52D"/><path d="M16.379 27.74l-.043.044c.014-.015.03-.028.043-.044m-3.692-4.439c.016-.06.034-.126.048-.185l-.098.038c.016.05.03.1.05.147m2.724 5.85c.17-.02.347-.04.524-.058a1.893 1.893 0 0 0-.114-.429c-.138.162-.277.323-.41.487" fill="#58B893"/><path d="M12.917 19.788s3.002-2.382 5.392 1.385c0 0-2.022-2.16-5.392-1.385zm5.631 6.818l-1.276-.846-1.87.094 3.008-1.344c1.378-.616 2.457-2.084 3.21-3.45.104-.878-.01-1.777-.124-2.372a3.998 3.998 0 0 1-2.287.974s.954-.641 1.744-1.75c-.7-.245-1.446-.995-1.576-1.445-.037-.127-.032-.354-.006-.622a2.212 2.212 0 0 1-.183-.213l-.098-.133-.02-.164c-.017-.15-.025-.292-.035-.437-.015-.006-.033-.013-.045-.02l.039-.064a9.075 9.075 0 0 1-.019-.836c-.992.121-2.856.406-4.599.984.756.321 1.63.802 2.313 1.49l1.155 1.162s-4.073-1.28-7.55 1.014c1.023-1.512 2.809-2.068 4.167-2.265a9.13 9.13 0 0 0-2.008-.742l-1.749-.375 1.608-.783c.143-.069.292-.132.44-.196v-.002c1.574-2.678 5.208-3.712 5.208-3.712C16.553 8.5 13.261 8.3 13.261 8.3c3.62-2.159 8.154-.699 8.154-.699-.33-.875-1.19-1.501-1.19-1.501 2.362-.534 5.193 1.873 5.193 1.873.074-.418-.063-1.24-.063-1.24 1.213.969 1.93 2.447 2.25 3.243.553-1.272 1.088-2.765 1.26-4.096a3.528 3.528 0 0 1-1.15.675l-.535.178-.225-.516c-.014-.03-1.139-2.543-3.22-3.839a5.99 5.99 0 0 1 .24 2.197l-.096 1.363-.959-.974c-.032-.033-2.877-2.885-6.165-3.422-.002.003-.005.005-.006.008.446.656.94 1.557 1.2 2.61l.37 1.505-1.303-.839c-.026-.016-2.435-1.518-6.346-1.579.372.478.738 1.122.948 1.953l.22.866-.889-.103c-.033-.004-2.792-.314-5.064.141a.142.142 0 0 1 .007.005C8.583 6.5 9.39 8.654 9.39 8.654c-4.59 1.402-5.141 4.634-5.07 6.412.079.213.157.43.238.64 1.009-.921 2.942-2.532 5.051-3.477a4.562 4.562 0 0 0-2.02-.22l-2.45.27c6.764-3.995 9.421-2.214 9.421-2.214-1.81-.242-3.628.323-4.912.888 1.137.314 1.807.879 1.85.915l.87.746-1.103.314c-.345.098-.69.226-1.034.376-2.991 2.463-3.767 5.3-3.967 6.539l.015.034a8.507 8.507 0 0 1 2.99-3.815s-2.156 2.88-2.22 5.487a73.328 73.328 0 0 0 1.643 3.25c.658-.968 1.993-2.259 4.617-2.898l.813-.197-.052.835a7.658 7.658 0 0 1-.325 1.64c.472-.104 1.206-.37 1.679-1.046.175-.282.312-.588.39-.921 0 0 .363 1.004-.714 2.291-.376 1.21-1.11 2.943-2.44 4.094 0 0 1.52-.81 2.52-.574 0 0-1.91 1.94-1.46 4.648.06.115.124.229.19.34a55.969 55.969 0 0 0 1.972 2.484c.454-1.994 1.432-3.547 2.338-4.632a42.178 42.178 0 0 0-1.602-.477l-1.064.241.697-1.217c.599-1.048 1.456-2.007 2.296-2.804z" fill="#FED81C"/><path d="M35.768 19.532c-3.874 2.965-4.93-.782-4.93-.782a4.93 4.93 0 0 0 4.283-.19c-3.682 1.327-4.937-2.69-4.937-2.69.082.318.512.564.933.734.318.03.668-.01.915-.053.185-.788 1.148-1.536 2.599-1.277.604.109 1 .478 1.262.903v-.012c.667.155.883.692.918 1.243.25-.343.368-.726.368-.726.089 1.545-.562 2.393-1.41 2.85zm-10.317-.818c-.056-4.268 3.973-3.372 3.973-3.372-2.868.639-3.973 3.372-3.973 3.372zm7.599-4.399s-2.22-2.065-5.166.261c0 0 1.992-3.94 5.166-.26zm4.907 7.844c3.612-.409 4.063-1.605 4.063-1.605a1.165 1.165 0 0 1-.653-.89c-.274-.279-.443-.656-.395-1.175.077-.815.223-1.302.369-1.595-.634-.58-1.549-1.5-2.215-2.537-.01.138-.009.262.004.364l.318 2.479-1.434-2.047c-.28-.4-2.213-3.193-3.168-5.476a2.28 2.28 0 0 0-.09.631l.078 1.544-1.12-1.066c-.018-.018-1.558-1.463-3.336-2.156-.2 1.043-1.17 2.437-1.17 2.437.477-.024.754.408.754.408-1.387.07-3.76 2.127-4.087 2.416-.944 1.157-1.823 2.694-2.02 4.54l.068.02a7.33 7.33 0 0 1-.094.28c-.027.426-.02.865.033 1.32.35-.174.8-.34 1.368-.446l.963-.182s-1.59 2.93-.9 4.94c-.346-.496-.538-1.05-.64-1.593.043 1.302.407 2.72.407 2.72-.664-.54-1.131-2.844-1.131-2.844-.4.276-.739 1.28-.739 1.28l-.475-.708a3.924 3.924 0 0 1-.686.96l1.766-.09-1.947 1.252a14.59 14.59 0 0 0-.678.476c-.83 1.057-1.283 2.249-1.478 2.87.33.02.637.07.89.162l1.117.409-.978.677c-.015.01-.722.515-1.537 1.458-.613 1.515-.394 2.727-.007 3.573.6-2.684 1.705-4.449 1.762-4.54-1.103 3.11-.785 5.771-.767 5.912 7.534-5.713 9.364 2.693 9.364 2.693.205-.36.701.634 1.273.605.573-.029.88-.905 1.087-1.202.101-.145.481-.001.845.184a5.957 5.957 0 0 0-.33-1.241c-1.024-2.778-2.806-3.534-2.881-3.566l-.354-.144c.226-5.634-2.932-6.879-4.386-7.154 1.101.172 1.985.581 2.697 1.115l-.038-.044c1.752.215 2.023.71 2.023.71-.272-1.61.188-3.227.188-3.227-.66-.119-1.675.467-1.675.467a5.84 5.84 0 0 1 .12-.984l-.723.138.33-.996c.128-.383.326-.707.548-.98-.533-.857-.532-2.292-.531-2.382a5.85 5.85 0 0 1-.264-.858s1.113 2.162 4.108 2.701l-.956.39c.955.104 1.772.784 1.772.784l-.007.01.008.003-.318.639a8.517 8.517 0 0 0-.486 1.24c1.18-1.211 2.756-.855 2.756-.855-.936.398-1.206 2.642-1.206 2.642 2.998-.891 7.068-3.39 8.147-4.073-.898.405-3.167.444-3.167.444-.3.394-.995.25-1.111.223a2.413 2.413 0 0 1-.546.181c1.128-.773.725-3.036.725-3.036.619.345.748 1.044.773 1.395z" fill="#FED81C"/><path d="M36.687 18.807l.002-.006-.01.015.008-.009" fill="#41886D"/><path d="M30.671 24.19c-.229.598-.478 1.424-.443 2.118l.052 1.03c.435-1.361 3.355-2.458 3.355-2.458-.625-.133-1.39.076-2.006.323a8.53 8.53 0 0 1 .492-1.258l.318-.64-.678-.222c-.506-.165-1.327-.141-2.057-.07.3-.229.564-.342.568-.344l.37-.15.98-.4c-2.995-.539-4.108-2.701-4.108-2.701.008.037.084.393.265.862.212.546.568 1.248 1.134 1.788a3.89 3.89 0 0 0-.607.595 3.072 3.072 0 0 0-.544.975l-.33.996.726-.139.304-.058c.63-.12 1.541-.237 2.21-.247m4.633-8.115c.134.151.287.355.272.57a.565.565 0 0 1-.202.408c-.007.01-.012.022-.021.032a.63.63 0 0 1-.442.205.635.635 0 0 1-.22.037c-.669-.007-1.11-.999-.59-1.464.367-.328.912-.118 1.203.212zm-2.195.366c.397-.02.428.596.031.616-.397.02-.428-.596-.03-.616zm-1.06.004c-.023.105-.034.21-.029.314 0 0-.413-.089-.846-.259s-.886-.422-.97-.749c0 0 1.267 4.057 4.989 2.673 0 0-.738 1.35-2.782 1.424 0 0 2.027.335 3.446-.476.29-.166.553-.38.77-.655l.006-.007c.387-.496.621-1.185.566-2.147 0 0-.118.382-.367.725a1.452 1.452 0 0 1-.422.404s-.045-.898-.496-1.632c-.26-.425-.657-.796-1.263-.905-1.458-.26-2.424.496-2.601 1.29zm1.164-2.238c-3.174-3.679-5.166.261-5.166.261 2.945-2.326 5.166-.26 5.166-.26" fill="#1A1919"/><path d="M23.31 12.879a3.41 3.41 0 0 1 1.378.364c-.59-2.052-2.496-3.072-2.496-3.072s.966 1.367 1.12 2.708h-.001m.513 2.017a8.08 8.08 0 0 1 .587-.789c-.65-.806-1.97-.875-2.67-.85.004.004.49.344.672.985 0 0-1.113 1.147-2.379.603.171.172.549.474 1.013.362l.086-.02c.928-.224 1.946-.467 2.691-.291" fill="#A76521"/><path d="M24.35 13.87c.068.056.133.117.198.177a4.188 4.188 0 0 0-.199-.177" fill="#E1E2E0"/><path d="M22.762 9.269c-.434.186-3.071 1.49-2.69 5.484 1.265.544 2.378-.604 2.378-.604-.18-.64-.665-.98-.671-.983-.28.01-.463.035-.463.035.046-.03.098-.061.152-.092l.044-.023c.045-.024.093-.048.143-.072l.04-.018a3.508 3.508 0 0 1 .454-.166 3.594 3.594 0 0 1 1.166-.135h.001c-.154-1.342-1.12-2.708-1.12-2.708 2.033.351 3.056 1.836 3.519 2.81l.078-.059c-.067-.645-.323-2.207-1.27-3.006-.467-.395-1.044-.547-1.76-.463" fill="#D19627"/><path d="M32.991 17.26c.405-.02.373-.636-.032-.616-.404.02-.373.636.032.616m1.142-1.376c-.521.466-.079 1.457.59 1.464a.655.655 0 0 0 .22-.037.631.631 0 0 0 .442-.205c.009-.01.013-.021.02-.031a.565.565 0 0 0 .202-.408c.015-.216-.137-.42-.271-.571-.292-.33-.836-.54-1.203-.212" fill="#FFFFFE"/><path d="M41.283 15.236c-.52-.531-1.262-1.582-1.262-1.582-.3-.474-.526-.954-.602-1.404l-.424-2.506-.772 2.422c-.024.079-.136.435-.24.891-1.095-1.72-2.494-4.173-2.547-5.343l-.027-.616a76.44 76.44 0 0 1 4.369 1.22l.008-.006c1.856.587 2.973 1.129 3.089 1.186a64.961 64.961 0 0 1-1.592 5.738zm1.621 5.148l-.047.02c.185.433-.187.816-.482 1.038 0 0-1.664.971-4.524.94 0 0 .004-.076-.004-.198-.023-.346-.148-1.058-.774-1.407 0 0 .402 2.263-.725 3.036 0 0 .243-.043.528-.173.312-.143.675-.392.822-.812 0 0 2.458.15 4.064-.288.02.206.042.55.039 1.061-.523.663-4.321 2.448-7.638 3.762l-.32.126s-1.451 3.705-3.726 4.82c-.26-1.21-.96-3.362-2.778-4.699-.705-.52-1.579-.915-2.66-1.085 1.454.276 4.612 1.52 4.386 7.154l.354.145c.075.03 1.857.787 2.881 3.565.186.503.286.916.331 1.254.075.555 0 .91-.104 1.132-.144.31-.365.395-.361.395l-.436.124-.012.453c-.03 1.12-1.567 1.222-1.63 1.226l-.303.015-.173.25c-.29.42-.607.644-.97.685-.373.04-.776-.118-1.08-.295l1.21-1.648-.159-.333c-2.06-4.306-6.67-4.428-8.55-4.284 0 0-.368-2.73.765-5.924-.057.09-1.165 1.857-1.765 4.545a15.93 15.93 0 0 0-.318 2.028l-.073.817.805-.157c.195-.038 3.982-.735 6.55 1.532.424.164.836.91.836.91l.002.003a56.228 56.228 0 0 1-2.875 2.997c-.005-.006-.011-.011-.015-.018-.323-.167-1.412-.948-1.764-1.202a48.067 48.067 0 0 1-5.527-5.29c.28-2.314 1.421-4.082 2.401-5.212.81-.934 1.51-1.434 1.525-1.445l.977-.677-1.116-.408a3.258 3.258 0 0 0-.885-.165c-.547-.036-1.16.008-1.702.075 1.05-1.297 2.408-2.38 3.2-2.961.39-.286.644-.453.653-.458l1.947-1.251-1.752.088-1.447.073c.895-.886 1.608-1.996 2.14-3.008l.002.012.194 1.326.888-1.014c.013-.015.237-.265.76-.49-.041.48-.042 1.08.074 1.696.102.542.294 1.096.64 1.592-.692-2.011.9-4.94.9-4.94l-.964.181a5.215 5.215 0 0 0-1.368.447 7.305 7.305 0 0 1-.033-1.32c.054-.154.085-.253.093-.28l-.066-.021c.193-1.821 1.052-3.342 1.981-4.493 1.277-1.582 2.687-2.467 2.687-2.467a5.841 5.841 0 0 0-.519.189c.452-.919.973-2.094 1.374-3.326a5.62 5.62 0 0 1 1.003.297c1.776.693 3.314 2.137 3.333 2.155l1.119 1.066-.078-1.543a2.28 2.28 0 0 1 .09-.632c.955 2.283 2.888 5.076 3.168 5.476l1.433 2.047-.317-2.479a1.946 1.946 0 0 1-.004-.364c.666 1.037 1.58 1.958 2.215 2.537-.146.293-.292.78-.369 1.595-.048.519.12.897.394 1.176.43.437 1.119.626 1.65.706zm-7.684 8.238l-3.228 5.62s-.633-.61-1.076-.928c.919-.69 3.217-2.594 4.029-4.918l.003.002.005-.022.535-.216c-.09.156-.181.305-.272.46l.004.002zM23.967 43.136l-.012-.02.024.01a.382.382 0 0 1-.012.01zm.686-29.913c-1.39-.699-2.759-.265-3.376.143 0 0 2.223-.314 3.133.814a8.012 8.012 0 0 0-.587.788c-.746-.176-1.763.068-2.691.291l-.086.021c-.465.111-.843-.19-1.013-.362-.38-3.993 2.256-5.298 2.69-5.484.717-.084 1.294.068 1.762.463.946.799 1.202 2.36 1.269 3.006l-.078.06c-.463-.975-1.486-2.46-3.519-2.81 0 0 1.907 1.019 2.496 3.07zM13.499 32.7a62.696 62.696 0 0 1-3.604-5.426c2.76-.926 4.21-1.958 4.961-2.855 1.08-1.288.716-2.295.716-2.295a3.024 3.024 0 0 1-.374.897c-.465.76-1.225 1.341-1.944 1.756.1-.235.182-.467.25-.688a7.65 7.65 0 0 0 .324-1.638l.052-.835-.812.198c-2.625.639-3.96 1.93-4.618 2.898a73.328 73.328 0 0 1-1.642-3.25c.063-2.608 2.219-5.487 2.219-5.487a8.507 8.507 0 0 0-2.99 3.815l-.015-.036a82.916 82.916 0 0 1-1.224-2.898c.798-.756 2.935-2.658 5.18-3.635.348-.15.697-.281 1.045-.38l1.103-.314-.87-.747c-.042-.036-.713-.6-1.85-.914 1.285-.566 3.103-1.13 4.913-.889 0 0-2.658-1.78-9.422 2.214l2.45-.27a4.56 4.56 0 0 1 2.02.22c-2.108.945-4.042 2.556-5.051 3.477a92.248 92.248 0 0 1-1.624-4.636c1.433-2.03 4.276-2.27 4.304-2.273l.864-.061-.34-.796c-.32-.747-1.136-1.384-1.878-1.836 2.273-.455 5.031-.145 5.065-.142l.888.104-.22-.867a5.255 5.255 0 0 0-.948-1.952c3.912.06 6.32 1.562 6.346 1.579l1.303.838-.37-1.504c-.261-1.059-.76-1.964-1.207-2.621 3.294.53 6.146 3.392 6.179 3.424l.958.974.096-1.363a5.99 5.99 0 0 0-.24-2.196c2.082 1.295 3.207 3.808 3.22 3.838l.226.516.534-.178a3.528 3.528 0 0 0 1.151-.674c-.172 1.33-.707 2.822-1.26 4.094a30.8 30.8 0 0 1-.669 1.43c-.24-.814-.665-1.727-1.41-2.358-.756-.64-1.698-.886-2.801-.736l-.13.032c-.033.012-2.772 1.064-3.443 4.377-1.132.123-4.02.52-6.367 1.543-.148.065-.295.132-.439.202l-1.607.783 1.749.374a9.13 9.13 0 0 1 2.008.742c-1.359.198-3.144.753-4.168 2.266 3.478-2.294 7.55-1.014 7.55-1.014l-1.154-1.163c-.683-.687-1.557-1.168-2.313-1.49 1.743-.578 3.607-.862 4.599-.984a9.15 9.15 0 0 0 .06 1.358l.019.164.098.132c.05.067.113.138.183.212.372.388 1.017.82 1.816.78a2.2 2.2 0 0 0 .39-.057l.086-.021.03-.007a5.87 5.87 0 0 1-.737 1.371 7.636 7.636 0 0 1-1.747 1.752 3.992 3.992 0 0 0 2.287-.975c.904-.788 1.347-1.846 1.533-2.425.15-.022.29-.037.412-.043a8.208 8.208 0 0 0-.573 1.996c-.064.197-.49 1.471-1.25 2.848-.752 1.366-1.83 2.832-3.207 3.447l-3.008 1.345 1.874-.095 2.365-.12c-.343.282-.716.609-1.091.965-.84.796-1.699 1.757-2.299 2.805l-.696 1.218 1.07-.243.298-.068a13.974 13.974 0 0 1 2.07-.3c-.24.239-.503.522-.771.843-.907 1.087-1.885 2.64-2.34 4.635A56.247 56.247 0 0 1 13.5 32.7zm-4.353-6.722c.243-.56 1.037-1.899 3.3-2.697-.174.739-.542 1.766-1.3 2.449L9.735 27a69.096 69.096 0 0 1-.589-1.022zM1.496 6.974c.46-.135 1.205-.339 2.199-.566l.078.032c.587.242 1.47.713 2.057 1.22-.982.233-2.445.759-3.576 1.92a99.632 99.632 0 0 1-.758-2.606zm28.344-1.04c1.575.266 3.147.586 4.715.956l-.287.578a11.3 11.3 0 0 0-.67 1.712c-.9-.7-2.4-1.695-3.989-2.026.1-.41.179-.82.23-1.22zm14.762 2.683c-.98-.414-2.86-1.002-4.592-1.514a77.727 77.727 0 0 0-3.641-1.035l-.131-.036.004.004c-.297-.076-.593-.153-.89-.225l-.022-.485-.213.43a76.08 76.08 0 0 0-5.215-1.06 5.197 5.197 0 0 0-.061-.664l-.285-1.682-.856 1.475c-.004.006-.176.29-.457.612-.382-.055-.763-.103-1.145-.152-.855-1.334-2.445-3.252-4.777-3.821L20.409 0l1.308 1.475c.026.03.478.552.69 1.52-1.5-1.198-4.283-3.004-7.286-2.852l-1.395.07.993.983c.01.01.709.71 1.264 1.792-1.445-.578-3.908-1.255-7.114-1.014l-2.016.155 1.76.997c.008.004.537.326 1.004 1.022C4.024 4.804.715 5.92.545 5.978L0 6.167l.15.556c5.41 20.118 14.681 30.85 21.507 36.31.185.149.368.291.55.432l.005.004c.73.65 2.156 1.406 2.156 1.406l.295-.277h.002c.047-.043.1-.094.15-.142l.053-.049a50.49 50.49 0 0 0 1.305-1.294l.106.1c.041.038.198.179.437.34.836.47 1.186.536 1.186.536a2.603 2.603 0 0 0 .868.061c.649-.07 1.213-.397 1.68-.974.904-.13 2.222-.666 2.463-2.017.224-.148.495-.393.697-.79.334-.657.368-1.509.114-2.536l.01-.01c-.17-.725-.617-1.662-.79-2.01a9.34 9.34 0 0 0-.272-.478 74.261 74.261 0 0 0 5.122-8.147c.355-.157.688-.307.997-.45 1.519-.726 3.47-1.935 3.47-1.935.764-.592.77-.907.772-1.088.006-.537-.013-.93-.035-1.197.645-.45 1.362-1.28 1.087-2.318 1.347-1.06.493-3.948.493-3.948-.271.119-1.25.172-2.003.195l-.057-.048a66.57 66.57 0 0 0 1.754-6.098l.012.007-.01-.012c.118-.502.238-1.004.347-1.516h.002l.034-.139-.055-.023z" fill="#1A1919"/></g></svg>