<svg width="125" height="29" viewBox="0 0 125 29" xmlns="http://www.w3.org/2000/svg"><path d="M0 29L13.003 0l12.922 29h-2.871l-3.989-9.15H6.94L2.951 29H0zm7.897-11.476h10.131L13.003 5.971 7.897 17.524zM30.073 29V.775h7.738c1.994 0 3.83.543 5.584 1.629 1.755 1.085 2.632 3.101 2.632 5.97 0 1.163-.239 2.326-.797 3.412-.479 1.086-1.436 2.016-2.792 2.792-1.356.775-3.191 1.24-5.584 1.395L47.144 29h-3.27l-9.892-12.95h-1.037V29h-2.872zm2.792-15.198h2.872c4.946 0 7.339-1.783 7.339-5.35 0-2.171-.638-3.645-1.915-4.342-1.276-.698-2.871-1.008-4.866-1.008h-3.59v10.7h.16zM51.452 29V.775h2.792V13.88L67.246.775h3.51l-13.8 13.647L70.996 29h-3.75L54.244 15.275V29h-2.792zm23.612 0V.775h15.555v2.25H77.856v8.994H90.14v2.248H77.856v12.407h12.683v2.248H75.064V29zm21.538 0V.775h2.792v25.899h9.333v2.248H96.602V29zm16.273 0V.775h2.792v25.899H125v2.248h-12.125V29z" fill="#404040"/></svg>