<svg width="370" height="67" viewBox="0 0 370 67" xmlns="http://www.w3.org/2000/svg"><path d="M370 58.922H91.067v3.645H370v-3.645zm-25.101-11.237c-.941-.911-.627-3.949-.627-5.164V19.743c0-2.43-.628-5.163 2.196-6.074v-.911h-12.55v1.214c2.824.608 2.196 3.949 2.196 5.771v22.78c0 2.126.628 5.163-2.196 5.77v1.215h12.55v-1.215c-.627 0-1.255-.303-1.57-.607zm21.022-2.126c-5.02-5.467-10.354-10.934-14.433-17.313 4.393-5.466 9.1-12.148 15.06-15.793h-8.784c-2.824 6.985-8.158 13.667-12.865 19.742 4.079 5.467 8.786 10.934 12.237 17.312H370c-1.255-1.215-2.824-2.43-4.08-3.948zM267.4 33.714l5.333-14.883 5.02 14.882H267.4zm21.335 7.593c-1.882-4.86-3.451-9.72-5.334-14.58-1.568-4.555-3.765-9.11-4.706-13.97h-10.982v1.214c2.824.608 2.197 3.341 1.255 5.467-1.255 3.645-2.823 6.986-4.392 10.327-2.824 6.682-5.02 13.668-9.1 19.742h6.903c.314-4.556 2.197-9.111 3.452-13.364h12.236c1.569 4.252 3.766 8.808 4.079 13.364h9.727c-.941-2.733-2.196-5.467-3.138-8.2zm38.593-28.55h-10.354v1.214c2.51.608 2.196 3.038 2.196 5.164v9.719h-14.747v-9.72c0-1.822 0-4.555 2.197-5.163v-1.214h-12.55v1.214c2.51.608 2.197 3.645 2.197 5.771v22.779c0 2.127.627 5.468-2.197 6.075v1.215h12.55v-1.215c-3.451-.911-2.196-7.897-2.196-10.63v-6.682h14.747V42.52c0 2.127.314 5.468-2.196 6.075v1.215h12.55v-1.215c-3.451-.911-2.196-7.897-2.196-10.63v.303V24.3v.303c0-2.734-1.255-9.72 2.196-10.63v-1.215h-2.196zm-80.95 30.068c-.628 2.126-2.197 3.645-4.393 4.252-1.883.608-4.706.608-5.962-1.215-.941-1.518-.313-4.86-.313-6.681V27.943c4.079 0 8.47-.304 10.668 3.644 1.568 3.645 1.255 7.897 0 11.238zm5.647-14.275c-4.392-3.037-10.981-2.43-16.315-2.43 0-3.037-1.883-9.719 1.882-10.934 2.197-.91 6.275-.303 8.786 0 3.45.304 4.392 2.734 5.333 5.771h1.883v-8.2h-28.238v1.214c3.765.912 2.196 7.897 2.196 10.327v13.668c0 2.733 1.255 9.719-2.196 10.63v1.215c5.647 0 10.98.304 16.629 0 3.45 0 7.216-.608 10.04-2.734 5.02-4.252 5.648-14.882 0-18.527zm-40.161 1.519c-1.57 3.037-5.648 2.43-8.785 2.43 0-4.86-.314-9.72 0-14.58 0-1.518 0-2.429 1.568-3.036 1.255-.304 3.452 0 4.393.303 5.648 2.126 5.02 10.63 2.824 14.883zm5.648-15.794c-3.452-1.822-7.531-1.822-10.982-1.822h-13.492v1.215c2.824.607 2.197 3.644 2.197 5.77v22.78c0 2.126.627 5.163-2.197 5.77v1.215h12.55V47.99c-2.196-.608-2.196-2.734-2.196-4.556v-8.808c6.276 0 14.433.607 17.57-5.771 1.884-4.252 1.57-11.542-3.45-14.579zm-33.26 30.069c-1.254 3.948-8.47 3.645-11.609 2.43-1.882-.608-2.196-2.43-2.196-4.253-.314-3.644 0-7.289 0-11.237 3.451 0 8.785-.608 11.923 1.215v-4.556c-3.138 1.822-8.472 1.215-11.923 1.215 0-3.341-.314-6.682 0-10.023 0-2.734.314-4.252 3.138-4.252 2.196 0 4.706-.304 6.589.303 2.824.608 3.765 3.038 4.392 5.467h1.883v-7.896h-26.356v1.214c2.824.608 2.196 3.645 2.196 5.771v22.78c0 2.126.628 5.163-2.196 5.77v1.215h27.297v-8.504h-2.196c-.314 1.518-.628 2.733-.941 3.34zm-37.337-1.519c-.627 2.126-2.196 3.645-4.393 4.252-1.882.608-4.706.608-5.961-1.215-.941-1.518-.314-4.86-.314-6.681V27.943c4.08 0 8.472-.304 10.668 3.644 1.255 3.645.941 7.897 0 11.238zm5.334-14.275c-4.393-3.037-10.982-2.43-16.316-2.43 0-3.037-1.882-9.719 1.883-10.934 2.196-.91 6.275-.303 8.785 0 3.452.304 4.393 2.734 5.334 5.771h1.883v-8.2H125.58v1.214c2.622 0 2.622 6.986 2.622 6.986v23.387s0 4.79-2.622 4.556v1.215c5.648 0 10.982.303 16.63 0 3.451 0 7.216-.608 10.04-2.734 5.02-4.556 5.648-15.186 0-18.83zm-33.258 17.01c-4.706 2.126-11.923 2.43-15.688-1.823-3.765-4.252-3.451-10.934-3.451-16.097.314-4.556.941-10.63 6.275-12.453 5.02-1.822 11.296.608 12.237 6.075h2.51v-7.29c-6.275-2.733-15.06-2.733-21.336.304-6.275 3.341-8.471 10.63-8.471 17.009 0 6.378 1.882 13.364 7.844 16.705 6.902 3.948 16.315 2.733 23.218-1.215l-1.255-2.43c-.628.607-1.255.911-1.883 1.215zM22.04 41.914L.075 29.765C-1.179 48.292 13.254 64.693 32.08 66.819c18.198 1.823 35.768-10.326 39.22-27.942 1.569-7.593.314-15.49-3.452-22.476L22.04 41.914zm0-8.808L1.644 21.868a77.747 77.747 0 0 0-.941 3.949l21.335 11.845L65.966 13.06c-.628-.911-1.569-2.126-2.51-3.037L22.039 33.106zm0-8.808L4.781 14.883c-.627.91-1.255 2.126-1.882 3.34l18.826 10.63 39.22-21.867c-.942-.912-2.197-1.823-3.138-2.734L22.039 24.298zm0-8.808L9.488 8.808c-.941.911-1.569 1.822-2.51 3.037l15.06 8.2L54.357 2.127C53.102 1.215 51.533.607 50.277 0L22.04 15.49z" fill="#404040" fill-opacity=".3"/></svg>