<?xml version="1.0" encoding="UTF-8"?>
<svg width="190px" height="45px" viewBox="0 0 190 45" version="1.1" xmlns="http://www.w3.org/2000/svg" xmlns:xlink="http://www.w3.org/1999/xlink">
    <!-- Generator: Sketch 46.1 (44463) - http://www.bohemiancoding.com/sketch -->
    <title>logo head black</title>
    <desc>Created with Sketch.</desc>
    <defs>
        <polygon id="path-1" points="1.88425298e-20 0.650338224 1.88425298e-20 28.7663153 18.8022419 28.7663153 18.8022419 0.650338224 0 0.650338224"></polygon>
    </defs>
    <g id="Design" stroke="none" stroke-width="1" fill="none" fill-rule="evenodd">
        <g id="2-Hosts" transform="translate(-50.000000, -19.000000)">
            <g id="Header">
                <g id="top-menu">
                    <g id="logo-head-black" transform="translate(50.000000, 19.000000)">
                        <g id="logo" transform="translate(60.000000, 3.000000)">
                            <path d="M69.3261895,15.8523023 C69.824624,15.8599491 70.325144,15.8752428 70.8340059,15.9100011 C70.3265343,15.8766331 69.8239288,15.8585588 69.3261895,15.8523023" id="Fill-1" fill="#1D1D1B"></path>
                            <path d="M71.4161385,15.9615824 C71.8012608,15.9949504 72.1842976,16.0241474 72.5742861,16.0728091 C72.1849928,16.0255378 71.8005657,15.9942553 71.4161385,15.9615824" id="Fill-3" fill="#1D1D1B"></path>
                            <path d="M18.5566396,-6.95166651e-05 C18.5566396,-6.95166651e-05 19.7551069,1.38053145 18.4850374,4.45942455 C17.2149679,7.53762248 13.8468855,12.6005212 16.1200804,14.3043747 C16.1200804,14.3043747 16.2910914,12.4051794 18.5489927,9.24912278 C20.8061988,6.09306618 24.5649649,0.0965586479 18.5566396,-6.95166651e-05" id="Fill-5" fill="#1D1D1B"></path>
                            <path d="M25.3837322,19.3498942 C24.9645467,19.3505894 24.5717776,19.2331062 24.2784172,18.9015117 C23.6305219,18.1715868 23.6944772,16.7305063 24.1616292,15.8434736 C24.3319451,15.5188308 24.6976027,14.9967607 25.2850185,15.0057978 C25.3197769,15.006493 25.3552304,15.0085785 25.3920742,15.0134447 C25.9197057,15.0780952 26.0886312,15.3179276 26.1769174,15.519526 C26.488352,16.232767 26.1567575,17.6863604 25.3837322,19.3498942 L25.3837322,19.3498942 Z M29.6777766,17.7982823 C28.548826,18.5886867 27.0618645,18.9758946 26.7448685,19.0523629 C27.347578,17.5688773 27.6555368,16.0888675 27.2085447,15.0683628 C27.005556,14.601906 26.5481364,14.0200515 25.529022,13.8956167 C24.5613501,13.776048 23.7014289,14.2953375 23.1640651,15.319318 C22.5113036,16.5615808 22.4341401,18.5205604 23.4351801,19.6488159 C23.6910014,19.93731 24.1379936,20.2987967 24.8359409,20.4280977 C24.4529041,21.1239595 24.0059119,21.8358102 23.5067823,22.5288913 C22.0476274,24.5553021 20.7295915,24.8132089 20.0949043,24.7965249 C19.5339048,24.2007671 19.8522912,22.0367133 20.2054358,20.0742579 C20.6183648,17.7802079 23.2544368,14.4190772 23.2544368,14.4190772 C18.6343592,14.3446943 17.0285242,19.0843406 16.9798626,22.135427 C16.9423236,24.4663208 18.2805194,25.4472009 19.3239645,25.7878326 L19.317708,25.8038214 C19.3413437,25.8121634 19.4908045,25.8615202 19.7278563,25.8934979 C19.889135,25.9247804 20.0365103,25.9400741 20.1581645,25.9421596 C20.2617443,25.9442451 20.343774,25.9310369 20.4112052,25.9101819 C21.3879143,25.8337136 22.8936453,25.3081676 24.4209264,23.1872141 C24.9492531,22.4531182 25.5776837,21.463896 26.1219992,20.4009862 C26.3826867,20.3495439 26.663534,20.27099 26.9652363,20.158373 C27.264158,20.0888564 28.9735728,19.6668902 30.3235864,18.7214636 L29.6777766,17.7982823 Z" id="Fill-7" fill="#1D1D1B"></path>
                            <path d="M35.4279866,19.5161781 C35.0213141,19.5203491 34.6167271,19.3993901 34.3226716,19.0671004 C33.6754715,18.3378706 33.7394268,16.896095 34.2058836,16.0090623 C34.3768946,15.6844195 34.7425523,15.1623494 35.3292729,15.1720817 C35.3640313,15.1727769 35.3994848,15.1748624 35.4363286,15.1797285 C35.9639601,15.244379 36.1335808,15.4842115 36.2218669,15.6858098 C36.5333016,16.3990508 36.2017071,17.8526443 35.4279866,19.5161781 L35.4279866,19.5161781 Z M39.722031,17.9645661 C38.5937755,18.7542754 37.1068141,19.1421784 36.7891229,19.2186468 C37.3918324,17.734466 37.7004864,16.2551513 37.2534942,15.2346467 C37.0498104,14.7681899 36.5930859,14.1863354 35.5739716,14.0619005 C34.6049093,13.938856 33.7463785,14.4616214 33.2090147,15.4849067 C32.555558,16.7271695 32.4790897,18.6861491 33.4801296,19.8150997 C33.735951,20.1035939 34.182248,20.4650806 34.8801953,20.5943816 C34.4978536,21.2902434 34.0501663,22.002094 33.5510366,22.6951752 C32.0932722,24.721586 30.774541,24.9794928 30.1398539,24.963504 C29.5781592,24.3677461 29.8972407,22.2029972 30.2503854,20.2405417 C30.6633144,17.9464918 33.2986912,14.585361 33.2986912,14.585361 C28.6786136,14.5109782 27.0734738,19.2506244 27.0248121,22.3010157 C26.9872731,24.6319095 28.3247738,25.6127896 29.3682189,25.9534213 L29.3626576,25.9694101 C29.3855981,25.9784473 29.5343637,26.0264138 29.7686349,26.0590866 C29.9319991,26.0903691 30.0807647,26.1063579 30.2031141,26.1084434 C30.3073891,26.1098338 30.3894187,26.0973208 30.4568499,26.0764658 C31.433559,25.9993023 32.93929,25.4737563 34.465876,23.353498 C34.9935074,22.619402 35.6226333,21.6301799 36.1669488,20.5672701 C36.4269411,20.5158277 36.7077884,20.4365787 37.0094907,20.3246569 C37.3091076,20.2551402 39.0178272,19.8331741 40.3678408,18.8877474 L39.722031,17.9645661 Z" id="Fill-9" fill="#1D1D1B"></path>
                            <g id="Group-13" transform="translate(0.000000, 1.615984)">
                                <mask id="mask-2" fill="white">
                                    <use xlink:href="#path-1"></use>
                                </mask>
                                <g id="Clip-12"></g>
                                <path d="M18.6910153,22.1458545 C18.5346028,21.810089 18.4247664,21.4729332 18.3510788,21.1378629 C16.862727,22.7179767 14.9176507,24.7471681 13.5328787,26.0624234 C12.9545001,26.6123002 12.4310396,26.9710062 11.9701441,27.2059726 C10.18009,23.1670543 16.683374,15.5848716 16.683374,15.5848716 C12.6875561,15.5202211 10.3935061,18.3947352 9.15541432,21.1253499 C7.67192868,22.1507207 5.96042839,23.0259355 4.88013941,22.5782482 C2.64170279,21.6502007 4.11476093,11.8142877 7.57043435,7.12747416 C11.0261078,2.44135576 13.0990947,2.00548627 14.364298,2.16676494 C15.6295013,2.3280436 17.8241425,3.03502808 16.8328348,6.32177601 L18.1334916,4.24600839 C18.1334916,4.24600839 17.7942503,0.719427968 13.5433062,0.651301636 C9.29236215,0.582480137 3.53290644,4.19873706 0.869027831,12.1848115 C-1.79485078,20.1701909 2.34834247,24.0401836 4.15229993,24.0686855 C5.04489391,24.083284 6.74527154,23.9817896 8.3594485,23.2831471 C8.02507334,24.4301721 7.88743034,25.3561341 7.88186901,25.7252676 C7.85962368,27.0864039 8.74526599,28.7436812 10.1328186,28.7659265 C10.3330266,28.7694024 10.517941,28.7492425 10.6945133,28.7186552 C11.5829363,28.6672129 12.8418831,28.2737485 14.3093799,26.8792442 C15.5968285,25.6557509 17.3611615,23.8253771 18.8022419,22.3015718 C18.7584464,22.260557 18.7202123,22.2091147 18.6910153,22.1458545" id="Fill-11" fill="#1D1D1B" mask="url(#mask-2)"></path>
                            </g>
                            <path d="M60.4784559,30.3133675 C59.8041443,30.3210143 59.1319181,30.2299475 58.518086,30.0353008 L58.4457886,30.0116652 C58.3575025,29.9838585 58.2699115,29.9560518 58.1920528,29.92755 C57.7805141,29.7662713 57.3946967,29.5584165 57.0464182,29.3081565 C56.6599055,29.0300898 56.3095415,28.7478522 56.0043634,28.4739565 C55.1736392,27.462489 54.9546617,26.1096947 55.3529922,24.4531126 C55.9285902,22.0617393 58.0099191,19.4166302 60.3832181,18.0360293 C61.6727522,17.4931041 63.0707324,17.0801751 64.5396195,16.8062794 C65.859741,18.8431177 66.180908,21.5945873 66.1593578,22.9265266 C66.1218188,25.2650673 64.6411138,30.3717615 60.4784559,30.3133675 L60.4784559,30.3133675 Z M75.1416061,15.9164661 C72.3025455,15.348515 69.5503807,15.1545635 66.9685318,15.3394778 C66.160053,14.7381587 65.3564403,14.2084417 64.6445897,13.7392042 C62.4847069,12.3148077 60.9240577,11.2852659 60.9511692,9.60296261 C60.9900986,7.16431799 63.3439329,4.81674021 65.1068755,4.84524204 L65.1068755,4.84524204 C65.9855661,4.87513421 66.7300896,5.2421822 67.2014126,5.87825969 C67.2883084,5.99574285 67.3606058,6.12434868 67.4266466,6.25712551 C67.9083971,7.00929583 67.9966833,7.94707564 67.7992559,8.87929412 C66.6056548,11.3999684 65.6393731,13.9978062 67.1437138,15.1246713 C67.1437138,15.1246713 67.3154199,13.2261712 69.5726261,10.0701146 C71.8305273,6.91336283 75.5885983,0.917550463 69.5802729,0.820922299 C69.5802729,0.820922299 70.7787402,2.20152327 69.5086707,5.2797212 C69.3258419,5.72393269 69.0978272,6.20985418 68.8510431,6.72080167 C68.8510431,6.718021 69.0109314,3.15876775 64.3310695,3.08368975 C63.7443489,3.07465258 63.1958624,3.13721758 62.6842197,3.25887175 C61.6963879,3.43752957 60.7356676,3.81361473 59.9105048,4.35793022 C59.6831853,4.54701555 59.4732449,4.73749121 59.2952823,4.92310071 C57.7582688,6.53241151 57.1395705,8.58454346 57.2160388,9.81081743 C57.36689,12.2459862 59.3001484,13.5494237 62.3706995,14.8632887 C62.85245,15.069058 63.302918,15.3791023 63.7172374,15.7871651 C63.5795944,15.8149718 63.4440369,15.8434736 63.31126,15.874061 C56.9511803,17.3408626 53.7707929,21.0210749 53.2966892,22.4746683 C52.6154259,24.5594731 52.3519578,27.3241509 56.3894857,30.223691 C56.420073,30.2459363 56.453441,30.2626203 56.4847235,30.2841705 C57.4607375,30.7568838 58.4353611,31.0398166 59.4746353,31.2268165 C61.1381691,31.3359576 62.7433089,31.1656418 64.3123,30.599081 C64.324813,30.5935196 64.3408018,30.5872631 64.3526197,30.5817018 C67.4002303,29.5848328 69.2375557,28.2987745 69.8138489,26.7582852 C71.0171824,23.5445298 70.9511415,19.2052996 68.2386013,16.420462 C70.3852759,16.3592873 72.6223222,16.5615808 74.9212383,17.0203908 L75.1972194,17.0760041 L75.4175873,15.9713843 L75.1416061,15.9164661 Z" id="Fill-14" fill="#1D1D1B"></path>
                            <path d="M86.0902723,21.9384168 C84.1382444,26.1559928 81.9755809,25.9182458 81.4451687,25.7833835 C80.7569538,25.3315252 81.0899386,23.0458172 81.4611576,20.9825626 C81.8740866,18.6885127 84.5101585,15.3266867 84.5101585,15.3266867 C79.8893858,15.2523039 78.284246,19.9919501 78.2355843,23.0430366 C78.2272423,23.5296532 78.280075,23.9564856 78.3767031,24.3318755 C76.9460502,25.9578703 75.6627725,25.8070192 75.2713937,25.7076104 C74.5824836,25.2564472 74.9161636,22.9700441 75.2866874,20.9067895 C75.6996164,18.6127395 78.3363835,15.2509136 78.3363835,15.2509136 C73.7156107,15.1765308 72.110471,19.916177 72.0611141,22.9672634 C72.0200993,25.5442462 73.6586071,26.4709033 74.7222121,26.7065648 L74.7201266,26.7121262 C74.7660076,26.7315908 75.1400072,26.8803565 75.71491,26.8900888 C76.5018387,26.9026018 77.6655477,26.6481708 78.8786135,25.443447 C79.443784,26.2602678 80.2689468,26.6433047 80.8966823,26.7816428 L80.8939016,26.7878993 C80.9397826,26.8066688 81.3137822,26.9561297 81.8893802,26.9651668 C83.1239962,26.9853267 85.2852693,26.3589815 87.1128625,22.4118253 L86.0902723,21.9384168 Z" id="Fill-16" fill="#1D1D1B"></path>
                            <path d="M108.131991,23.6478316 C106.390598,26.4868922 104.656158,26.2915503 104.189006,26.1726768 C103.500791,25.7215137 103.833775,23.4358057 104.20569,21.3718559 C104.617923,19.077806 107.253995,15.7166752 107.253995,15.7166752 C102.633223,15.6422924 101.028778,20.3819386 100.979421,23.4323299 C100.937711,26.0093127 102.576219,26.9359698 103.640519,27.1716313 L103.638434,27.1771927 C103.684315,27.1966573 104.058314,27.345423 104.633217,27.3551553 C105.569607,27.3697538 107.039189,27.0096575 108.492087,25.1146332 C108.203593,24.7044849 108.102099,24.1810244 108.131991,23.6478316" id="Fill-18" fill="#1D1D1B"></path>
                            <path d="M119.504431,22.4958014 C118.796056,23.5531499 117.722719,24.8357323 116.753656,25.605977 C116.26982,26.0216866 115.995925,25.8583225 115.979241,24.8072305 C115.961861,23.7526627 117.763733,18.6501395 117.678923,17.3487875 C117.594113,16.0474355 116.121055,15.9758334 116.121055,15.9758334 L116.12175,15.9772237 C115.564921,15.9334282 114.838472,16.2615469 113.915291,16.9761782 C113.009489,17.6776013 111.168687,20.5006731 109.757499,22.790552 C110.668863,19.2014066 112.22256,15.8500082 112.22256,15.8500082 C108.561812,15.790919 107.169394,19.1492691 107.177736,23.0227377 C107.185382,26.8962063 109.11447,27.3737858 109.11447,27.3737858 C109.104738,26.9170613 109.127678,26.4373963 109.17634,25.9445231 C110.36577,23.9146365 111.981337,21.2931631 113.204135,19.5677595 C113.697008,18.902485 114.047372,18.5820131 114.536075,18.2823963 C115.234717,17.8541737 115.012959,19.2389456 114.494365,20.8823196 C113.97577,22.5256936 113.919462,24.9782415 113.919462,24.9782415 L113.921547,24.971985 C113.848555,25.7318022 113.902778,26.3498053 114.144696,26.7717715 C114.326829,27.090853 114.606982,27.299403 114.954565,27.3737858 C115.069267,27.3988118 115.184665,27.4120199 115.301453,27.4134103 C117.432834,27.4474734 119.938215,23.8743169 120.44082,23.1221465 L119.504431,22.4958014 Z" id="Fill-20" fill="#1D1D1B"></path>
                            <path d="M48.0666029,9.41220888 C49.6578394,5.83210062 51.3234587,4.15883449 51.762804,4.03648516 C52.4531045,5.1800343 49.4298247,13.7688183 45.835118,19.38646 C45.8837797,14.8609251 47.357533,11.006226 48.0666029,9.41220888 M52.2911307,3.03335968 C52.1979784,2.98330768 52.0971792,2.94646385 51.9887332,2.92699919 C51.9511942,2.91657169 51.9240827,2.91031519 51.9240827,2.91031519 C50.6248162,2.75390269 48.9612824,5.35174047 48.3043499,6.47304427 C46.05201,10.3152304 44.3432904,15.6304746 44.7165949,21.0075886 C41.6154564,25.1959677 40.2598814,25.03886 40.1528258,25.0193954 C40.1041641,24.99715 40.0541121,24.9901984 40.003365,24.9825515 C39.5772278,24.3972212 39.7586663,22.7350778 40.0388185,21.0604213 C41.6224081,15.5414932 44.821565,15.2947091 44.821565,15.2947091 C43.962339,14.4486913 42.6554257,14.5793826 41.7266831,14.8275571 C41.6133709,14.8553638 41.5056201,14.8901221 41.3971741,14.9241853 C41.3061073,14.9540774 41.2212969,14.9825793 41.1434383,15.0110811 C41.0398584,15.0500104 40.9355834,15.0868543 40.8368698,15.1313449 C40.7027026,15.1876534 40.6213681,15.2272779 40.6213681,15.2272779 L40.6199778,15.2411812 C37.9783445,16.5821577 36.9800852,19.9919501 36.941851,22.3784573 C36.8924942,25.4302389 39.2018378,26.1712865 40.120153,26.185885 C40.2098295,26.1872753 40.2807364,26.1768478 40.3433014,26.160859 C40.9133381,26.1288813 41.8010659,25.7945062 43.0669644,24.6210649 L43.0558417,24.6363585 C43.5598375,24.2338571 44.2098184,23.6311476 44.9397433,22.8866241 C45.3832597,25.5963837 46.3961175,28.279727 48.1868668,30.7566057 C48.2953128,30.9060666 48.4635431,30.9874011 48.6352493,30.9901817 C48.7520373,30.9915721 48.8709108,30.9575089 48.9737954,30.8831261 C49.2254458,30.7009924 49.2824494,30.3492381 49.1003158,30.0968926 C47.1566298,27.4086831 46.2577793,24.5439014 45.9588577,21.8105061 C49.2205796,18.2568142 53.4110442,12.6614178 54.2035341,8.78933956 C55.0509423,4.64475598 53.1274162,3.38094301 52.2911307,3.03335968" id="Fill-22" fill="#1D1D1B"></path>
                            <path d="M97.0456121,19.6689757 C97.1950729,15.36937 98.5840159,11.7468566 99.2652792,10.2147093 C100.898226,6.54214384 102.60764,4.87652454 102.971908,4.82230154 C102.973298,4.82299671 103.092867,4.94256537 103.115807,5.45629353 C103.233986,8.1333803 100.593743,15.2637046 97.09914,19.6112769 C97.0810656,19.6321319 97.0636865,19.6488159 97.0456121,19.6689757 M103.175592,3.70933974 L103.179067,3.72185273 C103.160298,3.71907207 103.140138,3.71490107 103.122759,3.71281557 C101.817931,3.56613541 100.160654,6.15424085 99.5030262,7.27554466 C97.4036229,10.8556529 95.781104,15.715563 95.8714756,20.7124209 C94.6903875,21.5083867 93.6684925,21.4499927 92.7251514,21.3922938 C91.9118064,21.0370637 94.2691165,17.9206316 94.2899715,16.6533428 C94.3059603,15.6432656 93.215939,15.4500093 92.7710324,15.4124703 C92.7105529,15.4055186 92.6507685,15.4034331 92.5895939,15.4034331 L92.5847277,15.4034331 L92.5847277,15.4034331 C92.1759697,15.4076041 91.7769441,15.5584553 91.5920297,15.6307526 C90.2524436,16.1556035 88.9288463,18.0561891 87.8582897,20.0429754 C88.7001365,17.4819814 89.6254033,15.486158 89.6254033,15.486158 C85.9639605,15.427764 84.5722369,18.7854189 84.5798837,22.6595827 C84.5882257,26.5330512 86.5173132,27.0099356 86.5173132,27.0099356 C86.5075809,26.5865791 86.5270455,26.1430627 86.5680603,25.6884238 L86.5777927,25.6918996 C87.3167548,23.6488048 89.5134815,18.4851069 91.4682901,17.0030116 C92.3101369,16.7861196 91.9952264,16.6978335 91.0470191,19.0308127 C90.0911649,21.3811712 91.6761449,22.2570812 91.6761449,22.2570812 L91.6775352,22.256386 C91.8638399,22.3849918 92.1113192,22.4844007 92.4463896,22.5038653 L92.6549395,22.5163783 C93.5732547,22.5747723 94.6778745,22.6380325 95.9298696,21.9887468 C96.185691,25.2678479 97.2207941,28.5643282 99.3862382,31.5591061 C99.4939891,31.708567 99.6622194,31.7892063 99.8339256,31.791987 C99.9514087,31.7940725 100.070282,31.7593141 100.172472,31.6856265 C100.424817,31.5027976 100.481126,31.1510433 100.298992,30.8986978 C98.0626409,27.8052062 97.1985488,24.4767483 97.0546493,21.3853422 C97.1582291,21.2755058 97.2604186,21.1573275 97.3633033,21.0405395 L97.3264594,21.0996287 C98.4359454,20.4871869 99.4640969,19.6835742 100.273966,18.7214636 C100.700798,18.2146871 101.087311,17.6682861 101.539169,17.1830598 C101.60521,17.1121528 101.673337,17.0426361 101.742158,16.9738146 C103.532212,14.4093448 105.015698,11.7336484 105.454348,9.58836411 C106.524905,4.35932055 103.175592,3.70933974 103.175592,3.70933974" id="Fill-24" fill="#1D1D1B"></path>
                            <path d="M125.499965,23.5443212 C125.401946,23.4713288 125.333125,23.3747006 125.286549,23.2711208 C125.109281,23.5436261 124.923672,23.8154362 124.730415,24.0844657 C123.272651,26.108791 121.954615,26.3694785 121.319233,26.3534897 C120.756843,25.758427 121.075924,23.5929829 121.429069,21.6298323 C121.841303,19.3357823 124.47807,15.9739564 124.47807,15.9739564 C119.857297,15.8995736 118.252157,20.639915 118.203496,23.6903062 C118.166652,25.9725384 119.448539,26.9617605 120.481557,27.322552 C120.503107,27.3329795 120.518401,27.3503587 120.541341,27.3587007 C120.564282,27.3677378 120.713047,27.4157043 120.947319,27.447682 C121.110683,27.4796597 121.258753,27.4956485 121.381798,27.497734 C121.486073,27.4991243 121.568102,27.4866113 121.635534,27.4650612 C122.612938,27.3885928 124.118669,26.8623517 125.64456,24.7427886 C125.732151,24.6204392 125.823217,24.4897479 125.91637,24.3541904 C125.870489,24.0385847 125.755786,23.7354921 125.499965,23.5443212" id="Fill-26" fill="#1D1D1B"></path>
                            <path d="M110.000877,3.75918318 C110.000877,3.75918318 110.734278,5.04037532 109.246621,7.27950711 C107.758964,9.51933406 104.29912,13.002119 105.833353,14.7073628 C105.833353,14.7073628 106.265746,13.2301336 108.547979,11.083459 C110.829516,8.9367844 114.744694,4.77551683 110.000877,3.75918318" id="Fill-28" fill="#1D1D1B"></path>
                            <path d="M89.7294002,27.7743408 C89.7294002,27.7743408 90.116608,26.3499443 92.7519848,25.818837 C95.3873616,25.2870345 100.297324,25.2703505 100.417587,22.9804716 C100.417587,22.9804716 99.0675738,23.7187386 95.9358481,23.6228056 C92.8048175,23.5275677 87.0940234,23.7020546 89.7294002,27.7743408" id="Fill-30" fill="#1D1D1B"></path>
                            <path d="M115.883655,40.1128537 C114.469686,40.0753147 114.355679,39.5031925 114.31814,39.3148024 C113.935798,37.3891908 117.855843,32.7315742 122.53779,29.6902201 C121.264245,34.5403978 119.445689,39.3801481 115.883655,40.1128537 M128.160298,16.0913701 C128.133882,16.0934556 128.107466,16.0962362 128.081049,16.0990169 C128.051157,16.1017976 128.024046,16.1031879 127.992763,16.1066637 L127.992763,16.1087492 C127.382407,16.1859127 126.795686,16.4598084 126.45575,17.1348152 C125.515189,19.0082893 124.675428,20.712838 123.340013,26.4138997 C123.207931,26.9762895 123.071678,27.5525826 122.930559,28.1344371 C117.9052,31.1382522 112.641398,36.6564851 113.21352,39.5337799 C113.362286,40.2845599 113.94136,41.1889717 115.854458,41.2397188 L115.894778,41.2397188 C120.149893,41.3085403 123.232262,34.370082 125.265624,28.1851843 L125.688286,26.8608918 C125.693152,26.8469885 125.696628,26.8337803 125.700799,26.8205722 C125.702884,26.7830332 125.695237,26.7482748 125.70497,26.70726 C125.99694,25.4761199 126.316021,24.3443885 126.699753,23.1445309 C126.991723,22.2324723 127.127976,21.3211088 127.551332,20.479262 C127.590262,20.349961 127.625715,20.2192696 127.670206,20.0934445 C127.661169,20.1052623 127.652131,20.116385 127.643094,20.128898 C128.58574,17.1640122 129.627795,16.6391614 129.714691,16.6009272 L129.976073,16.5307154 C129.976073,16.5307154 129.735546,15.9474706 128.160298,16.0913701" id="Fill-32" fill="#1D1D1B"></path>
                            <path d="M122.858749,16.1670042 C122.858749,16.1670042 125.578241,15.3286332 126.220575,16.7578958 C126.220575,16.7578958 122.741266,16.424911 121.428791,21.6296237 L120.729453,19.1075591 L122.858749,16.1670042 Z" id="Fill-34" fill="#1D1D1B"></path>
                        </g>
                        <g id="logo">
                            <polyline id="Fill-22-Copy" fill="#00A0A8" points="34.9884247 7.9569863 29.539726 6.47260274 29.2808219 7.38986301 33.9404795 10.1462671 35.2994178 9.21267123 38.2358219 14.1068836 38.8044863 13.082363 41.8953082 16.4462671 43.4906507 10.2732534 34.9884247 7.9569863"></polyline>
                            <path d="M1.84931507,8.03650685 L1.84962329,8.03681507 C2.00465753,8.57434932 2.1615411,9.10695205 2.32119863,9.63215753 C2.44818493,9.50178082 2.58041096,9.3825 2.7144863,9.26784247 C2.74253425,9.24380137 2.77027397,9.21945205 2.79893836,9.1960274 C2.92839041,9.08938356 3.06,8.98859589 3.1934589,8.89520548 C3.22181507,8.87547945 3.25017123,8.85729452 3.2785274,8.83787671 C3.39719178,8.75743151 3.51678082,8.68160959 3.63667808,8.61071918 C3.66318493,8.59530822 3.68938356,8.57835616 3.71558219,8.56325342 C3.84688356,8.48835616 3.97787671,8.41962329 4.10856164,8.35489726 C4.15078767,8.33393836 4.19270548,8.31390411 4.23493151,8.29386986 C4.36037671,8.23469178 4.48520548,8.17828767 4.60787671,8.12773973 L4.60818493,8.12773973 L3.54945205,7.70547945 L1.84931507,8.03650685" id="Fill-23-Copy" fill="#00A0A8"></path>
                            <path d="M29.6173973,5.23972603 L29.5890411,7.1694863 C29.5890411,7.1694863 40.867089,10.8826027 43.094589,12.275137 L44.0340411,9.36986301 L29.6173973,5.23972603" id="Fill-24-Copy" fill="#00777C"></path>
                            <path d="M3.74023973,6.47260274 C2.74592466,6.70006849 2.00188356,6.90380137 1.54109589,7.03910959 C1.63479452,7.38 1.73126712,7.71441781 1.82743151,8.0485274 L3.52756849,7.7175 L4.58630137,8.13945205 C5.05571918,7.94650685 5.50047945,7.8139726 5.87527397,7.72520548 C5.2875,7.21756849 4.40537671,6.74660959 3.81821918,6.50465753 L3.74023973,6.47260274" id="Fill-25-Copy" fill="#00777C"></path>
                            <path d="M33.9688356,32.7485959 C34.1990753,32.3907534 34.4462671,32.0267466 34.6891438,31.6575 C34.9693151,31.114726 35.2615068,30.5784247 35.5755822,30.0590753 C35.922637,29.4845548 36.2314726,28.8357534 36.6528082,28.3071575 C36.6432534,28.2800342 36.6355479,28.2516781 36.6253767,28.224863 C36.4333562,28.0599658 36.2484247,27.8858219 36.0397603,27.739726 C35.6298288,27.8306507 35.2719863,28.1243836 34.8685274,28.2421233 C34.8287671,28.2535274 34.792089,28.2556849 34.7575685,28.2522945 C34.0569863,29.1165411 33.5394863,30.2101027 33.0108904,31.1791438 C32.7405822,31.6750685 32.4335959,32.1284589 31.9805137,32.407089 C31.9506164,32.4462329 31.9207192,32.4856849 31.8905137,32.5248288 C31.8606164,32.5217466 31.8294863,32.5245205 31.7989726,32.5235959 C31.5859932,32.7060616 31.3351027,32.792363 31.085137,32.9458562 C30.8931164,33.0635959 30.7143493,33.1961301 30.5414384,33.3363699 C30.5294178,33.380137 30.5204795,33.425137 30.5136986,33.470137 C30.5383562,33.4920205 30.5627055,33.5154452 30.5818151,33.5499658 C30.6434589,33.6615411 30.7115753,33.7678767 30.7840068,33.8708219 C31.1803767,34.1167808 31.5166438,34.4444178 31.8846575,34.7316781 C31.9197945,34.7233562 31.9558562,34.7162671 31.9897603,34.7064041 C32.0680479,34.7538699 32.1509589,34.7853082 32.2351027,34.8062671 C32.6465753,34.4758562 32.9939384,34.0736301 33.4134247,33.7580137 C33.4020205,33.7170205 33.3890753,33.6760274 33.370274,33.634726 C33.5835616,33.3527055 33.7771233,33.0466438 33.9688356,32.7485959" id="Fill-26-Copy" fill="#00777C"></path>
                            <path d="M36.5572603,17.6606507 C36.7258562,17.5610959 36.8657877,17.4131507 36.9792123,17.2568836 C36.9416096,16.710411 36.722774,16.180274 36.0619521,16.0273973 L36.0616438,16.0283219 C36.5128767,16.7625 36.5572603,17.6606507 36.5572603,17.6606507" id="Fill-27-Copy" fill="#EEA52D"></path>
                            <path d="M35.8196918,19.4409247 C34.4012671,20.2518493 32.3738014,19.9171233 32.3738014,19.9171233 C34.4172945,19.8431507 35.1554795,18.4931507 35.1554795,18.4931507 C35.1554795,18.4931507 33.1998288,19.7284932 30.8219178,18.7119863 C30.8219178,18.7119863 31.8905137,22.5015411 35.8196918,19.4409247" id="Fill-28-Copy" fill="#EEA52D"></path>
                            <path d="M31.9761986,17.2519437 C31.9712671,17.0508324 31.982363,16.8467372 32.0057877,16.6438356 C31.7681507,16.7220124 31.4377397,16.7954151 31.130137,16.7500606 C31.5634932,17.0800741 31.9761986,17.2519437 31.9761986,17.2519437" id="Fill-29-Copy" fill="#EEA52D"></path>
                            <path d="M32.3244863,23.2871918 C32.3244863,23.2871918 31.4922945,22.5949315 30.5272603,22.5 L30.1573973,22.6507192 C30.1536986,22.6525685 29.8889384,22.7656849 29.5890411,22.995 C30.3195205,22.9231849 31.1406164,22.8991438 31.6464041,23.0649658 L32.3244863,23.2871918" id="Fill-30-Copy" fill="#EEA52D"></path>
                            <path d="M28.2671671,22.7262329 C28.459804,22.4895205 28.6712424,22.2910274 28.8740506,22.1316781 C28.307852,21.5910616 27.9521671,20.8895548 27.7404205,20.3430822 L27.739804,20.3424658 C27.739804,20.3424658 27.7210027,21.840411 28.2671671,22.7262329" id="Fill-31-Copy" fill="#EEA52D"></path>
                            <path d="M37.7910616,22.7878767 C37.6440411,23.2079795 37.2812671,23.4570205 36.9684247,23.6003425 C36.9684247,23.6003425 37.7694863,23.8127055 38.0980479,23.3818151 C38.0980479,23.3818151 40.3671575,23.3426712 41.2656164,22.9379795 C40.1859247,23.6200685 36.1168151,26.119726 33.1187671,27.0110959 C33.1187671,27.0110959 33.3878425,24.7669521 34.3239041,24.3690411 C34.3239041,24.3690411 32.7418151,24.0108904 31.5619521,25.229589 C32.1780822,24.9817808 32.9424658,24.7734247 33.5678425,24.9065753 C33.5678425,24.9065753 30.6474658,26.0032192 30.2128767,27.3649315 L30.1607877,26.3342466 C30.1256507,25.640137 30.375,24.8144178 30.6040068,24.2164726 C29.9357877,24.2257192 29.0237671,24.3440753 28.395,24.4636644 L28.0904795,24.5216096 C28.0248288,24.8455479 27.9752055,25.1892123 27.9671918,25.5183904 C27.9671918,25.5183904 28.9830822,24.932774 29.6420548,25.0514384 C29.6420548,25.0514384 29.1818836,26.6680479 29.4543493,28.279726 C29.4543493,28.279726 29.1834247,27.7834932 27.4315068,27.5692808 C27.4315068,27.5692808 27.4321233,27.5698973 27.4321233,27.5702055 C29.5653082,29.1399658 30.1617123,31.8375 30.310274,32.8071575 C30.4819521,32.9033219 30.7078767,33.0447945 30.9646233,33.2414384 C31.6528767,32.4903082 33.6356507,30.1456849 33.8689726,27.8340411 L33.9068836,27.4607877 L34.2554795,27.3227055 C37.5725342,26.0093836 41.3707192,24.2241781 41.8937671,23.5611986 C41.8968493,23.0501712 41.8746575,22.7055822 41.8552397,22.5 C40.2488014,22.937363 37.7910616,22.7878767 37.7910616,22.7878767" id="Fill-32-Copy" fill="#EEA52D"></path>
                            <path d="M42.9685274,20.4324658 C42.4380822,20.3520205 41.7482877,20.1630822 41.3189384,19.7260274 C41.3642466,20.0280822 41.5189726,20.397637 41.9732877,20.6281849 C41.9732877,20.6281849 41.5226712,21.8243836 37.9109589,22.2324658 C37.9189726,22.3539041 37.9146575,22.4312671 37.9146575,22.4312671 C40.7749315,22.4617808 42.4386986,21.4908904 42.4386986,21.4908904 C42.7336644,21.2686644 43.1059932,20.8849315 42.9213699,20.4528082 L42.9685274,20.4324658" id="Fill-33-Copy" fill="#EEA52D"></path>
                            <path d="M12.6936986,28.4359932 C14.0208904,27.2875685 14.7550685,25.5596918 15.1323288,24.3493151 C14.3811986,25.2456164 12.9316438,26.2784589 10.1712329,27.2037329 C11.3535616,29.1966781 12.5630137,31.0003767 13.7749315,32.6302397 C13.2466438,29.8593493 15.2140068,27.8627055 15.2140068,27.8627055 C14.2141438,27.6263014 12.6936986,28.4359932 12.6936986,28.4359932" id="Fill-34-Copy" fill="#EEA52D"></path>
                            <path d="M13.5040068,24.1841096 C13.4355822,24.405411 13.3535959,24.6371918 13.2534247,24.8726712 C13.9731164,24.4578082 14.7325685,23.8774315 15.1976712,23.1164384 C14.7260959,23.8071575 13.9820548,24.0780822 13.5040068,24.1841096" id="Fill-35-Copy" fill="#EEA52D"></path>
                            <path d="M12.5466781,23.1164384 C10.2834247,23.9144178 9.48914384,25.2536301 9.24657534,25.8127397 C9.4419863,26.1591781 9.6380137,26.4997603 9.83496575,26.8351027 L11.2456849,25.5649315 C12.0042123,24.882226 12.372226,23.8546233 12.5466781,23.1164384" id="Fill-36-Copy" fill="#EEA52D"></path>
                            <path d="M31.7576712,38.2975823 C31.5496233,38.5950138 31.2432534,39.4709727 30.6708904,39.4996371 C30.0988356,39.5286097 29.6026027,38.5339864 29.397637,38.8949111 C29.397637,38.8949111 27.5674315,30.4891577 20.0342466,36.2020001 C21.915,36.0580618 26.5253425,36.1798084 28.5851712,40.4856303 L28.7445205,40.8188152 L27.5347603,42.4665549 C27.8380479,42.6434727 28.2405822,42.8028221 28.6135274,42.7618289 C28.977226,42.721144 29.2943836,42.4973769 29.5838014,42.0775823 L29.7567123,41.8273084 L30.0603082,41.8118974 C30.1231849,41.8081988 31.6608904,41.7055618 31.6901712,40.5854933 L31.7018836,40.1330275 L32.1377055,40.0088152 C32.1340068,40.0091234 32.3553082,39.9231303 32.4992466,39.6142947 C32.6021918,39.3926851 32.6777055,39.0366919 32.6034247,38.4822056 C32.239726,38.2969659 31.8590753,38.1527193 31.7576712,38.2975823" id="Fill-37-Copy" fill="#EEA52D"></path>
                            <path d="M24.6359589,20.9589041 C24.1116781,21.1835959 23.887911,21.4329452 23.8749658,21.4480479 L22.9876027,22.462089 L22.7928082,21.1367466 C22.7921918,21.1324315 22.7921918,21.1284247 22.7915753,21.1244178 C22.2586644,22.1363014 21.5460616,23.2468151 20.6506849,24.132637 L22.097774,24.059589 C22.3409589,23.7997603 22.597089,23.474589 22.7706164,23.1127397 L23.2458904,23.8216438 C23.2458904,23.8216438 23.5840068,22.8168493 23.9843836,22.5416096 C23.9843836,22.5416096 24.4513356,24.8443151 25.1158562,25.3843151 C25.1158562,25.3843151 24.75,23.9591096 24.7090068,22.6541096 C24.5931164,22.0379795 24.5937329,21.4381849 24.6359589,20.9589041" id="Fill-38-Copy" fill="#EEA52D"></path>
                            <path d="M19.6258562,25.5821918 L17.260274,25.7014726 L18.5341438,26.5463014 C18.909863,26.1903082 19.2821918,25.8635959 19.6258562,25.5821918" id="Fill-39-Copy" fill="#EEA52D"></path>
                            <path d="M22.6390068,18.0234247 C22.7552055,17.2836986 22.9552397,16.6213356 23.2122945,16.0273973 C23.0890068,16.0332534 22.9490753,16.0483562 22.8002055,16.0705479 C22.6140411,16.6493836 22.1708219,17.7078082 21.2671233,18.4956164 C21.3808562,19.0929452 21.4952055,19.9929452 21.3894863,20.8716781 C22.1483219,19.4951712 22.5748973,18.2206849 22.6390068,18.0234247" id="Fill-40-Copy" fill="#EEA52D"></path>
                            <path d="M21.3350907,16.4419521 C21.20194,16.4740068 21.0721798,16.4921918 20.9458099,16.4986644 C20.1469058,16.5390411 19.5014948,16.107226 19.1300907,15.7191781 C19.1038921,15.9870205 19.099577,16.2123288 19.1362551,16.3393151 C19.2666318,16.7899315 20.0140633,17.5419863 20.7149537,17.7857877 C20.9991318,17.3863356 21.262351,16.9277055 21.4509811,16.4142123 C21.4417346,16.4163699 21.4309469,16.4188356 21.4220085,16.4209932 L21.3350907,16.4419521" id="Fill-41-Copy" fill="#EEA52D"></path>
                            <path d="M21.0757192,25.890411 C20.2839041,26.4710959 18.9258904,27.5544863 17.8767123,28.852089 C18.4188699,28.7852055 19.0309932,28.7408219 19.5780822,28.7768836 C19.7775,28.1462671 20.2361301,26.9460616 21.0757192,25.890411" id="Fill-42-Copy" fill="#EEA52D"></path>
                            <path d="M25.890411,13.9256507 C25.9215411,13.8976027 28.5321575,11.5505137 30.0159247,11.4756164 C30.0159247,11.4756164 29.7382192,11.0434932 29.2614041,11.0675342 C29.2614041,11.0675342 30.24,9.66297945 30.4344863,8.61873288 C30.1053082,8.4905137 29.7690411,8.38479452 29.4315411,8.32191781 C29.0308562,9.55356164 28.5096575,10.7291096 28.0581164,11.6472945 C28.369726,11.5203082 28.5663699,11.4620548 28.5774658,11.4589726 C28.5774658,11.4589726 27.167363,12.3435616 25.890411,13.9256507" id="Fill-43-Copy" fill="#EEA52D"></path>
                            <path d="M16.9425,30.1974658 L16.6438356,30.265274 C17.0611644,30.3814726 17.7189041,30.5697945 18.2410274,30.7405479 C18.5097945,30.4187671 18.7723973,30.1358219 19.0128082,29.8972603 C18.2937329,29.9407192 17.4840411,30.0744863 16.9425,30.1974658" id="Fill-44-Copy" fill="#EEA52D"></path>
                            <path d="M19.0035616,12.5560806 C19.6745548,9.24334088 22.4136986,8.19169704 22.4476027,8.17906005 L22.5764384,8.14700526 C23.6795548,7.99721074 24.6217808,8.24347786 25.3775342,8.8836491 C26.1231164,9.51457375 26.547226,10.4269025 26.7879452,11.2406012 C26.9981507,10.8201902 27.2286986,10.3338203 27.4564726,9.81077238 C27.1368493,9.01587512 26.4199315,7.53611485 25.2058562,6.56645731 C25.2058562,6.56645731 25.3430137,7.38816964 25.2684247,7.80611485 C25.2684247,7.80611485 22.4383562,5.39984773 20.0752397,5.93337512 C20.0752397,5.93337512 20.9351712,6.55906005 21.2661986,7.43471074 C21.2661986,7.43471074 16.7310616,5.97467649 13.1116438,8.1331354 C13.1116438,8.1331354 16.4040411,8.3340943 17.8461986,10.3880669 C17.8461986,10.3880669 14.2116781,11.4212176 12.6369863,14.099334 L12.6369863,14.0996422 C14.9828425,13.076971 17.8717808,12.6793683 19.0035616,12.5560806" id="Fill-45-Copy" fill="#EEA52D"></path>
                            <path d="M10.112363,13.2534247 C7.86606164,14.2301712 5.72886986,16.1325 4.93150685,16.8879452 C5.33034247,17.8853425 5.73873288,18.8509932 6.15513699,19.7861301 C6.35393836,18.5492466 7.12787671,15.7157877 10.112363,13.2534247" id="Fill-46-Copy" fill="#EEA52D"></path>
                            <path d="M9.22993151,8.40328767 C9.22993151,8.40328767 8.42085616,6.24636986 5.72393836,5.85616438 C6.4655137,6.30863014 7.28291096,6.9460274 7.60160959,7.69284247 L7.94157534,8.48866438 L7.07794521,8.54969178 C7.05020548,8.55184932 4.20657534,8.79195205 2.7739726,10.8234247 C3.21842466,12.2073288 3.68167808,13.5388356 4.16003425,14.8228767 C4.08729452,13.0463014 4.63469178,9.80753425 9.22993151,8.40328767" id="Fill-47-Copy" fill="#EEA52D"></path>
                            <path d="M18.3368836,20.9291449 C15.9478767,17.1620901 12.9452055,19.5443161 12.9452055,19.5443161 C16.3158904,18.7685284 18.3368836,20.9291449 18.3368836,20.9291449" id="Fill-48-Copy" fill="#EEA52D"></path>
                            <path d="M25.5827722,18.860627 C25.5827722,18.860627 26.687738,16.1279558 29.5554092,15.4893257 C29.5554092,15.4893257 25.5266763,14.5933325 25.5827722,18.860627" id="Fill-49-Copy" fill="#EEA52D"></path>
                            <path d="M27.7542123,40.0567808 C27.81,39.4742466 27.2280822,38.9487329 26.6523288,39.0874315 C26.5164041,39.120411 26.3918836,39.1715753 26.2735274,39.2319863 C23.7048288,36.9884589 19.9396233,37.6807192 19.7454452,37.7186301 L18.9403767,37.8752055 L19.0131164,37.0584247 C19.0778425,36.3381164 19.1906507,35.6594178 19.3311986,35.0306507 C18.9443836,34.180274 18.7280137,32.9609589 19.3533904,31.4383562 C18.3732534,32.5689041 17.2328425,34.3362329 16.9520548,36.6509589 C18.9292808,38.8587329 20.8531849,40.6356164 22.6106507,42.0488014 C22.6232877,42.2177055 22.6843151,42.3909247 22.8113014,42.5555137 C23.2052055,43.0659247 23.7541438,43.3285274 24.3887671,43.3877055 C24.8060959,43.4268493 25.1855137,43.1491438 25.3263699,42.7669521 C25.3300685,42.7573973 25.3343836,42.7481507 25.337774,42.7382877 C25.6034589,42.7410616 25.8716096,42.6285616 26.0667123,42.3434589 C26.2316096,42.1027397 26.3961986,41.8620205 26.5610959,41.6213014 C26.6017808,41.5618151 26.7417123,41.3405137 26.8560616,41.1574315 C27.3821918,41.0181164 27.7033562,40.5866096 27.7542123,40.0567808" id="Fill-50-Copy" fill="#EEA52D"></path>
                            <path d="M16.3787921,27.739726 C16.3641975,27.7543206 16.350211,27.7695233 16.3356164,27.7841179 C16.3496029,27.7689152 16.3654137,27.7555368 16.3787921,27.739726" id="Fill-51-Copy" fill="#58B893"></path>
                            <path d="M12.6874593,23.3013032 C12.702662,23.2404924 12.7209052,23.1754248 12.7348917,23.1164384 C12.7008377,23.1286005 12.6704322,23.1419789 12.6369863,23.1541411 C12.6534052,23.2033978 12.6673917,23.2538708 12.6874593,23.3013032" id="Fill-52-Copy" fill="#58B893"></path>
                            <path d="M15.4109589,29.1514782 C15.5818373,29.1301944 15.7581886,29.111343 15.9351481,29.0930998 C15.9162967,28.9465457 15.8737292,28.8036403 15.8208238,28.6643836 C15.6827832,28.8255322 15.5441346,28.9866809 15.4109589,29.1514782" id="Fill-53-Copy" fill="#58B893"></path>
                            <path d="M12.9165281,19.7882877 C12.9165281,19.7882877 15.9191993,17.4060616 18.3085144,21.1731164 C18.3085144,21.1731164 16.287213,19.0128082 12.9165281,19.7882877 Z M18.5483089,26.6060959 L17.2719733,25.759726 L15.4023158,25.8540411 L18.4102267,24.509589 C19.7879665,23.8937671 20.8667336,22.4257192 21.6190966,21.0593836 C21.7235829,20.1818836 21.6092336,19.2834247 21.4955007,18.687637 C20.930535,19.1795548 20.1858774,19.5660616 19.2088226,19.6619178 C19.2088226,19.6619178 20.1630692,19.0208219 20.9527267,17.9121575 C20.252761,17.6668151 19.507487,16.9169178 19.3774185,16.4666096 C19.3404322,16.3396233 19.3447473,16.1133904 19.3712541,15.8449315 C19.3000555,15.7712671 19.2377952,15.6988356 19.1878637,15.6316438 L19.0895418,15.4991096 L19.0704322,15.3354452 C19.0528637,15.184726 19.0454665,15.042637 19.0352952,14.8980822 C19.0198843,14.8916096 19.0016993,14.8845205 18.9896788,14.8786644 C19.0029322,14.857089 19.0164939,14.8361301 19.0285144,14.8139384 C19.0106377,14.525137 19.0020076,14.2437329 19.0103295,13.9777397 C18.018172,14.0991781 16.1543706,14.3839726 14.4113911,14.9615753 C15.1671446,15.2830479 16.0418706,15.7644863 16.7242678,16.4515068 L17.8791651,17.6141096 C17.8791651,17.6141096 13.8063569,16.3340753 10.3281035,18.6281507 C11.3523158,17.1160274 13.1375213,16.5603082 14.4964596,16.3627397 C13.4848843,15.8393836 12.5025898,15.6236301 12.4881035,15.6205479 L10.7392678,15.2460616 L12.3469391,14.4634932 C12.4896446,14.3941438 12.6385144,14.3312671 12.7861514,14.2668493 L12.7861514,14.2646918 C14.3608432,11.5865753 17.9953637,10.5534247 17.9953637,10.5534247 C16.5532062,8.49945205 13.2605007,8.29880137 13.2605007,8.29880137 C16.8802267,6.14003425 21.4153637,7.60006849 21.4153637,7.60006849 C21.0843363,6.72472603 20.2240966,6.09873288 20.2240966,6.09873288 C22.587213,5.56520548 25.4175898,7.97178082 25.4175898,7.97178082 C25.4918706,7.5535274 25.3550213,6.73212329 25.3550213,6.73212329 C26.568172,7.70085616 27.2847815,9.17907534 27.604713,9.97458904 C28.1582747,8.70318493 28.6933432,7.20955479 28.8659459,5.87928082 C28.5395418,6.15667808 28.1514939,6.40818493 27.7144391,6.55366438 L27.1802952,6.73150685 L26.9546788,6.21554795 C26.9414254,6.18534247 25.8161172,3.67273973 23.7350213,2.37729452 C23.9159459,2.96383562 24.0361514,3.70017123 23.9748158,4.5739726 L23.8789596,5.93660959 L22.9200898,4.96294521 C22.888035,4.93027397 20.043172,2.07770548 16.7550898,1.54109589 C16.7529322,1.54386986 16.7504665,1.54633562 16.7486172,1.54910959 C17.1946103,2.205 17.6886857,3.10623288 17.9482062,4.15941781 L18.3186857,5.6635274 L17.0158432,4.82517123 C16.990261,4.80883562 14.5812199,3.30688356 10.6699185,3.2464726 C11.0419391,3.72421233 11.4081035,4.36777397 11.6183089,5.19873288 L11.8374528,6.06513699 L10.9494733,5.96188356 C10.9155692,5.95818493 8.15731579,5.64811644 5.88450757,6.10304795 C5.88697332,6.10458904 5.88943907,6.10613014 5.89159661,6.10767123 C8.58296647,6.50065068 9.39080894,8.65356164 9.39080894,8.65356164 C4.8017336,10.0556507 4.24971305,13.287637 4.32060346,15.0657534 C4.39981579,15.2790411 4.47810346,15.4957192 4.55854866,15.7059247 C5.56796647,14.7846575 7.50142538,13.1735959 9.61026099,12.2289041 C9.09399387,12.0489041 8.41190483,11.9172945 7.5901925,12.0082192 L5.1392336,12.2788356 C11.9040281,8.28369863 14.5614939,10.0648973 14.5614939,10.0648973 C12.7516309,9.82294521 10.9334459,10.387911 9.64940483,10.9531849 C10.7855007,11.2672603 11.4561857,11.8316096 11.4984117,11.8676712 L12.3685144,12.6144863 L11.2657062,12.9282534 C10.9214254,13.0262671 10.5752952,13.1544863 10.2319391,13.3036644 C7.24067195,15.7666438 6.46457606,18.6031849 6.26515825,19.8425342 C6.27008976,19.8539384 6.27502127,19.8659589 6.28026099,19.877363 C6.72687058,18.7406507 7.59389113,17.2670548 9.26937058,16.062226 C9.26937058,16.062226 7.11399387,18.9416096 7.0501925,21.5494521 C7.58711031,22.6806164 8.13574044,23.7618493 8.69300072,24.7996233 C9.35074044,23.8308904 10.6856377,22.5400685 13.310124,21.9014384 L14.122898,21.7035616 L14.0708089,22.5385274 C14.0674185,22.5943151 14.0181035,23.3013699 13.7456377,24.1794863 C14.2184459,24.075 14.9516993,23.8080822 15.4245076,23.1330822 C15.6001925,22.8510616 15.73735,22.545 15.8144048,22.2118151 C15.8144048,22.2118151 16.1777952,23.2163014 15.1008774,24.5031164 C14.7245418,25.7138014 13.9900555,27.4459932 12.6600898,28.5968836 C12.6600898,28.5968836 14.1808432,27.7871918 15.1807062,28.0232877 C15.1807062,28.0232877 13.2703637,29.962911 13.720672,32.6712329 C13.7816993,32.7861986 13.8448843,32.8999315 13.9108432,33.0111986 C14.5691993,33.8880822 15.2278637,34.7178082 15.8831377,35.4945205 C16.3368363,33.5006507 17.3145076,31.9484589 18.220672,30.8626027 C17.6960829,30.6912329 17.035261,30.5019863 16.6188569,30.3857877 L15.5551925,30.6271233 L16.2517678,29.4096575 C16.8509459,28.3620205 17.7084117,27.4025342 18.5483089,26.6060959 L18.5483089,26.6060959 Z" id="Fill-54-Copy" fill="#FED81C"></path>
                            <path d="M35.7683341,19.5315411 C31.8943272,22.4966096 30.8383683,18.749589 30.8383683,18.749589 C33.0032999,19.6751712 34.8131629,18.7366438 35.1207656,18.5606507 C31.4393957,19.8869178 30.1843272,15.8702055 30.1843272,15.8702055 C30.2656971,16.1876712 30.6956629,16.4336301 31.1166903,16.6037671 C31.4353889,16.6333562 31.7846012,16.5932877 32.031793,16.5513699 C32.2167245,15.762637 33.1802177,15.014589 34.6310053,15.2744178 C35.2351149,15.382911 35.6311766,15.7524658 35.8925464,16.1765753 L35.8937793,16.1654795 C36.5598409,16.319589 36.7762108,16.8568151 36.8113478,17.4082192 C37.0600807,17.064863 37.1787451,16.6817466 37.1787451,16.6817466 C37.2675122,18.2265411 36.6168615,19.0747603 35.7683341,19.5315411 Z M25.4510053,18.7135274 C25.3949094,14.4462329 29.4236423,15.342226 29.4236423,15.342226 C26.5559711,15.9808562 25.4510053,18.7135274 25.4510053,18.7135274 Z M33.0498409,14.3152397 C33.0498409,14.3152397 30.82943,12.2504795 27.8840875,14.5759932 C27.8840875,14.5759932 29.8757999,10.6360274 33.0498409,14.3152397 Z M37.9569985,22.1588014 L37.9573067,22.1584932 C41.569019,21.7501027 42.0196355,20.5539041 42.0196355,20.5539041 C41.5714848,20.3264384 41.4146012,19.9636644 41.3668272,19.6637671 C41.0931286,19.3854452 40.9239163,19.0075685 40.9723067,18.4891438 C41.0487451,17.6735959 41.1951492,17.187226 41.3409368,16.8938014 C40.7066218,16.3146575 39.7924437,15.3933904 39.1260738,14.3568493 C39.1168272,14.4949315 39.1174437,14.6191438 39.1303889,14.7208562 L39.4475464,17.1995548 L38.0137108,15.1526712 C37.734156,14.7532192 35.8013135,11.9595205 34.8458341,9.6765411 C34.7835738,9.9209589 34.7475122,10.1422603 34.7561423,10.3083904 L34.8338135,11.8519521 L33.7146697,10.7855137 C33.6961766,10.767637 32.1563135,9.32270548 30.3781971,8.63013699 C30.1787793,9.67284247 29.2078889,11.0669178 29.2078889,11.0669178 C29.684704,11.0428767 29.9624094,11.475 29.9624094,11.475 C28.5748067,11.5449658 26.2027519,13.6017123 25.8748067,13.8914384 C24.9313478,15.0481849 24.0516903,16.5849658 23.8556629,18.4305822 L23.9228546,18.4515411 C23.9145327,18.4783562 23.8827862,18.5776027 23.8294642,18.7317123 C23.8023409,19.1567466 23.8091218,19.5962671 23.8624437,20.0515068 C24.2119642,19.877363 24.6628889,19.7115411 25.229704,19.6048973 L26.1931971,19.4233562 C26.1931971,19.4233562 24.6024779,22.352363 25.2935053,24.3638014 C24.947067,23.8669521 24.7553546,23.3121575 24.6533341,22.7696918 C24.6961766,24.0719178 25.0601834,25.4894178 25.0601834,25.4894178 C24.3956629,24.9491096 23.9287108,22.6464041 23.9287108,22.6464041 C23.5283341,22.9216438 23.1902177,23.9264384 23.1902177,23.9264384 L22.7149437,23.2175342 C22.5383341,23.5855479 22.2763478,23.9156507 22.0294642,24.177637 L23.7946355,24.0885616 L21.8482314,25.3396233 C21.839293,25.3454795 21.5732999,25.5190068 21.1698409,25.8158219 C20.3391903,26.8727055 19.8870327,28.0648973 19.69193,28.6853425 C20.0217245,28.7066096 20.3293272,28.7559247 20.582067,28.8483904 L21.6987451,29.2567808 L20.721382,29.9339384 C20.7062793,29.944726 19.9992245,30.4492808 19.184293,31.3924315 C18.5706286,32.9070205 18.7903889,34.1192466 19.1765875,34.9646918 C19.7769985,32.2810274 20.8819642,30.5161644 20.939293,30.4258562 C19.8364848,33.534863 20.1539505,36.1963356 20.1718272,36.3365753 L20.1727519,36.3371918 C27.7059368,30.6243493 29.5361423,39.0301027 29.5361423,39.0301027 C29.7411081,38.6691781 30.2373409,39.6638014 30.8093957,39.635137 C31.3817588,39.6061644 31.6881286,38.7302055 31.8961766,38.432774 C31.9972725,38.2882192 32.3773067,38.4318493 32.7406971,38.617089 C32.6947725,38.2808219 32.594293,37.8721233 32.4112108,37.3755822 C31.3866903,34.5976027 29.6048752,33.8415411 29.5299779,33.810411 L29.1764505,33.6658562 C29.402067,28.0316096 26.2440533,26.7873288 24.789567,26.512089 C25.8914505,26.6843836 26.7751149,27.0933904 27.4871012,27.6269178 C27.4646012,27.6010274 27.4491903,27.5834589 27.4491903,27.5834589 C29.2011081,27.7976712 29.4720327,28.2939041 29.4720327,28.2939041 C29.199567,26.6825342 29.6597382,25.0659247 29.6597382,25.0659247 C29.0007656,24.9472603 27.9848752,25.5328767 27.9848752,25.5328767 C27.9925807,25.2080137 28.0409711,24.8689726 28.1053889,24.5490411 L27.3823067,24.6868151 L27.7127177,23.6906507 C27.8400122,23.3075342 28.0378889,22.9835959 28.2604231,22.7111301 C27.7268957,21.8542808 27.7281286,20.4192123 27.7287451,20.3292123 C27.5478204,19.8619521 27.4723067,19.5084247 27.4646012,19.4708219 C27.4646012,19.4708219 28.5775807,21.6332877 31.5725464,22.172363 L30.617067,22.5616438 C31.5716218,22.6661301 32.3893272,23.3460616 32.3893272,23.3460616 L32.3822382,23.3562329 L32.3899437,23.3586986 L32.0715533,23.997637 C31.957204,24.2263356 31.7402177,24.7210274 31.5857999,25.237911 C32.7653546,24.0269178 34.3415875,24.3832192 34.3415875,24.3832192 C33.4055259,24.7811301 33.1364505,27.025274 33.1364505,27.025274 C36.1344985,26.1339041 40.2036081,23.6342466 41.2832999,22.9524658 C40.3848409,23.3571575 38.1157314,23.3959932 38.1157314,23.3959932 C37.8152177,23.7902055 37.1211081,23.6465753 37.0046012,23.6191438 C36.7124094,23.7559932 36.4587451,23.8000685 36.4587451,23.8000685 C37.586519,23.0267466 37.184293,20.7638014 37.184293,20.7638014 C37.8028889,21.1086986 37.9320327,21.8083562 37.9569985,22.1588014 L37.9569985,22.1588014 Z" id="Fill-55-Copy" fill="#FED81C"></path>
                            <path d="M36.6872038,18.8074509 C36.6872038,18.8074509 36.6890281,18.801978 36.6890281,18.8013699 C36.6853795,18.8062347 36.6817308,18.8110996 36.6780822,18.8159645 C36.6811227,18.8129239 36.6841633,18.8104915 36.6872038,18.8074509" id="Fill-56-Copy" fill="#41886D"></path>
                            <path d="M30.6711986,24.190274 C30.4425,24.7882192 30.1931507,25.6139384 30.2282877,26.3080479 L30.2803767,27.3387329 C30.7149658,25.9770205 33.6353425,24.8803767 33.6353425,24.8803767 C33.0099658,24.747226 32.2455822,24.9555822 31.6294521,25.2033904 C31.7841781,24.6800342 32.0051712,24.1760959 32.1207534,23.9446233 L32.4391438,23.3056849 L31.7610616,23.0834589 C31.255274,22.917637 30.4341781,22.9416781 29.7036986,23.0134932 C30.0035959,22.7841781 30.2683562,22.6710616 30.2720548,22.6692123 L30.6419178,22.5184932 L31.6217466,22.1193493 C28.6267808,21.580274 27.5138014,19.4178082 27.5138014,19.4178082 C27.5215068,19.455411 27.597637,19.8107877 27.7791781,20.279589 C27.9909247,20.8260616 28.3466096,21.5275685 28.9125,22.0681849 C28.71,22.2275342 28.4985616,22.4260274 28.3059247,22.6627397 C28.0846233,22.9342808 27.8882877,23.2566781 27.7619178,23.637637 L27.4315068,24.6338014 L28.1579795,24.495411 L28.4625,24.4374658 C29.0912671,24.3178767 30.0032877,24.1995205 30.6711986,24.190274" id="Fill-57-Copy" fill="#1A1919"></path>
                            <path d="M35.305274,16.0749467 C35.4390411,16.2262823 35.5916096,16.4300152 35.5765068,16.6457686 C35.5644863,16.8189878 35.4920548,16.9549125 35.3752397,17.0532344 C35.3678425,17.0637138 35.362911,17.0745015 35.3539726,17.0846728 C35.237774,17.2202892 35.0787329,17.274844 34.9119863,17.2899467 C34.8447945,17.3139878 34.7711301,17.3272412 34.6919178,17.3266248 C34.0233904,17.3201522 33.5814041,16.3283029 34.1022945,15.8625837 C34.4690753,15.5346385 35.0136986,15.7445358 35.305274,16.0749467 Z M33.110137,16.4414193 C33.5071233,16.4213851 33.5382534,17.0368988 33.1409589,17.0572412 C32.7439726,17.0772755 32.7131507,16.4614536 33.110137,16.4414193 Z M32.0507877,16.445118 C32.027363,16.5499125 32.0162671,16.6553234 32.0211986,16.7591933 C32.0211986,16.7591933 31.6084932,16.6704262 31.175137,16.499981 C30.7423973,16.3295358 30.2893151,16.0777207 30.2054795,15.7510084 C30.2054795,15.7510084 31.4716438,19.8080974 35.1936986,18.4241933 C35.1936986,18.4241933 34.4555137,19.7741933 32.4120205,19.8481659 C32.4120205,19.8481659 34.4394863,20.1828919 35.857911,19.3719673 C36.1479452,19.2061454 36.4114726,18.9916248 36.6281507,18.7170015 C36.63,18.7145358 36.6318493,18.71207 36.6336986,18.7096043 C37.0214384,18.2139878 37.2553767,17.5248097 37.1998973,16.5625495 C37.1998973,16.5625495 37.0815411,16.9453577 36.8328082,17.2884056 C36.7193836,17.4446728 36.5794521,17.592618 36.4108562,17.6921728 C36.4108562,17.6921728 36.3664726,16.7940221 35.9152397,16.059844 C35.6541781,15.6345015 35.2575,15.2637138 34.6521575,15.1552207 C33.1936644,14.8941591 32.2280137,15.6514536 32.0507877,16.445118 L32.0507877,16.445118 Z" id="Fill-58-Copy" fill="#1A1919"></path>
                            <path d="M33.2136986,14.207223 C30.0396575,10.5280106 28.0479452,14.4679764 28.0479452,14.4679764 C30.9932877,12.1424627 33.2136986,14.207223 33.2136986,14.207223" id="Fill-59-Copy" fill="#1A1919"></path>
                            <path d="M23.3106164,12.8789384 C23.7485959,12.9008219 24.2164726,13.0053082 24.6877397,13.242637 C24.0987329,11.1908219 22.1917808,10.1712329 22.1917808,10.1712329 C22.1917808,10.1712329 23.1580479,11.5375685 23.3121575,12.8786301 L23.3106164,12.8789384" id="Fill-60-Copy" fill="#A76521"></path>
                            <path d="M23.8244178,14.8958875 C24.0093493,14.6129423 24.2059932,14.3500314 24.4112671,14.1071546 C23.7603082,13.3008533 22.4417466,13.2318122 21.7411644,13.2577026 C21.7454795,13.2607848 22.2318493,13.6010588 22.412774,14.2418464 C22.412774,14.2418464 21.2997945,15.3893464 20.0342466,14.8450314 C20.205,15.0167094 20.5828767,15.3187642 21.047363,15.2074971 L21.1333562,15.1865382 C22.0610959,14.9633875 23.0788356,14.7198944 23.8244178,14.8958875" id="Fill-61-Copy" fill="#A76521"></path>
                            <path d="M22.7415106,13.272276 L22.7415106,13.272276 C22.5493484,13.260722 22.3675241,13.2558571 22.1917808,13.2534247 C22.3675241,13.2558571 22.5499565,13.260722 22.7415106,13.272276" id="Fill-62-Copy" fill="#E1E2E0"></path>
                            <path d="M24.3493151,13.869863 C24.4180313,13.9264171 24.4830989,13.9866198 24.5481664,14.0474306 L24.5481664,14.0468225 C24.4830989,13.9860117 24.4174232,13.9264171 24.3493151,13.869863" id="Fill-63-Copy" fill="#E1E2E0"></path>
                            <path d="M22.7624484,9.26900284 C22.3275511,9.45547545 19.6910442,10.7595508 20.0716949,14.7525302 C21.3372429,15.2968453 22.4502223,14.1493453 22.4502223,14.1493453 C22.2696059,13.5097905 21.7847771,13.1695165 21.778921,13.1655097 C21.4981333,13.1753727 21.3156675,13.2006467 21.3156675,13.2006467 C21.3619004,13.170133 21.4136812,13.1396193 21.4679278,13.1091056 C21.4821059,13.1014001 21.4969004,13.0936946 21.5116949,13.0856809 C21.5573114,13.0616398 21.6050853,13.0375987 21.6553251,13.0141741 C21.6688867,13.0080097 21.6818319,13.0018453 21.6953936,12.9956809 C21.8313182,12.9349617 21.9826538,12.8788659 22.1472429,12.8310919 C22.1481675,12.8310919 22.148784,12.8307837 22.1494004,12.8304754 C22.4912155,12.7321535 22.8882018,12.6739001 23.3147771,12.694859 L23.3163182,12.6945508 C23.1622086,11.3534891 22.1959415,9.98715353 22.1959415,9.98715353 C24.228647,10.3382152 25.2516264,11.8225987 25.7148799,12.7971878 C25.7410785,12.7765371 25.7669689,12.7583522 25.7928593,12.7383179 C25.726284,12.0925987 25.4701538,10.5308522 24.523921,9.73194805 C24.055736,9.33711928 23.4790579,9.18485901 22.7624484,9.26900284" id="Fill-64-Copy" fill="#D19627"></path>
                            <path d="M32.9912113,17.2598279 C33.3959198,17.2397937 33.3641841,16.62428 32.9594756,16.6443142 C32.5547671,16.6643484 32.5861886,17.2798621 32.9912113,17.2598279" id="Fill-65-Copy" fill="#FFFFFE"></path>
                            <path d="M34.1329055,15.8838574 C33.6120151,16.3495766 34.0540014,17.3414259 34.7225288,17.3475903 C34.8017411,17.348515 34.8754055,17.3352615 34.9425973,17.3112204 C35.1093438,17.2961177 35.2683849,17.2415629 35.3848918,17.1056382 C35.3935219,17.095467 35.3984534,17.0846793 35.4058507,17.0745081 C35.5226657,16.975878 35.5950973,16.8402615 35.6071178,16.6670424 C35.6222205,16.4512889 35.469652,16.2475561 35.3358849,16.0959122 C35.0443096,15.7655013 34.4996863,15.5559122 34.1329055,15.8838574" id="Fill-66-Copy" fill="#FFFFFE"></path>
                            <path d="M40.0684932,9.55479452 C40.0849121,9.7453623 40.1025472,9.94893179 40.1201823,10.1629026 C40.1025472,9.94893179 40.0849121,9.7453623 40.0684932,9.55479452" id="Fill-67-Copy" fill="#DEDFDE"></path>
                            <path d="M41.2828767,15.2355822 C40.7626027,14.7045205 40.0207192,13.6544178 40.0207192,13.6544178 C39.7205137,13.1800685 39.4948973,12.6995548 39.4187671,12.249863 L38.9949658,9.74434932 L38.2234932,12.1657192 C38.1985274,12.2446233 38.0872603,12.6012329 37.9821575,13.057089 C36.8879795,11.3363014 35.4886644,8.88410959 35.4362671,7.71441781 L35.4088356,7.09767123 C36.8694863,7.46075342 38.3264384,7.86513699 39.7778425,8.31883562 L39.7858562,8.31236301 C41.6419521,8.89890411 42.7586301,9.44075342 42.8748288,9.49808219 C42.4189726,11.4864041 41.8848288,13.4013699 41.2828767,15.2355822 Z M42.9044178,20.3840753 L42.8572603,20.4044178 C43.0418836,20.8365411 42.6695548,21.220274 42.3748973,21.4425 C42.3748973,21.4425 40.7108219,22.4133904 37.8508562,22.3828767 C37.8508562,22.3828767 37.854863,22.3055137 37.8468493,22.1840753 C37.8237329,21.837637 37.6985959,21.1256507 37.0732192,20.7770548 C37.0732192,20.7770548 37.4754452,23.04 36.3476712,23.8133219 C36.3476712,23.8133219 36.5911644,23.7704795 36.8756507,23.640411 C37.1884932,23.497089 37.5512671,23.2480479 37.6982877,22.8279452 C37.6982877,22.8279452 40.1560274,22.9774315 41.7624658,22.5400685 C41.7818836,22.7456507 41.8040753,23.0902397 41.8009932,23.6012671 C41.2779452,24.2642466 37.4797603,26.0494521 34.1627055,27.3630822 L33.8433904,27.4894521 C33.8433904,27.4894521 32.3919863,31.1942466 30.1167123,32.3081507 C29.8565753,31.0993151 29.1563014,28.9473288 27.3393493,27.610274 C26.6338356,27.0909247 25.7603425,26.6945548 24.6784932,26.5253425 C26.1329795,26.8005822 29.2909932,28.044863 29.0653767,33.6791096 L29.4189041,33.8236644 C29.4938014,33.8547945 31.2756164,34.6108562 32.300137,37.3888356 C32.4856849,37.8918493 32.5864726,38.3045548 32.6314726,38.6432877 C32.7057534,39.197774 32.6302397,39.5537671 32.5272945,39.7753767 C32.3833562,40.0842123 32.1620548,40.1702055 32.1657534,40.1698973 L31.7299315,40.2941096 L31.7182192,40.7465753 C31.6889384,41.8666438 30.1512329,41.9692808 30.0883562,41.9729795 L29.7847603,41.9883904 L29.6118493,42.2386644 C29.3224315,42.6584589 29.005274,42.882226 28.6415753,42.922911 C28.2686301,42.9639041 27.8660959,42.8045548 27.5628082,42.627637 L28.7725685,40.9798973 L28.6132192,40.6467123 C26.5533904,36.3408904 21.9430479,36.2191438 20.0622945,36.3630822 C20.0622945,36.3630822 19.6952055,33.6331849 20.8282192,30.4391096 C20.7708904,30.5294178 19.6628425,32.2961301 19.0630479,34.9841096 C18.9225,35.6128767 18.8096918,36.2915753 18.7449658,37.0118836 L18.672226,37.8286644 L19.4772945,37.672089 C19.672089,37.6338699 23.4585616,36.9372945 26.0275685,39.2039384 C26.4510616,39.367911 26.8628425,40.1138014 26.8628425,40.1138014 C26.8637671,40.114726 26.8643836,40.1159589 26.865,40.1168836 C25.6832877,41.437911 24.6880479,42.4417808 23.9896233,43.1143151 C23.9846918,43.1081507 23.9788356,43.1026027 23.975137,43.0955137 C23.6521233,42.9293836 22.5625685,42.1480479 22.2108904,41.8940753 C20.4888699,40.4984589 18.6121233,38.757637 16.6839041,36.6044178 C16.9646918,34.2896918 18.1051027,32.522363 19.0852397,31.3918151 C19.8949315,30.457911 20.5952055,29.9576712 20.6103082,29.9471918 L21.587363,29.2700342 L20.4709932,28.8616438 C20.2191781,28.7694863 19.9143493,28.7189384 19.5857877,28.6970548 C19.0386986,28.6609932 18.4265753,28.7053767 17.8844178,28.7722603 C18.9335959,27.4746575 20.2916096,26.3912671 21.0834247,25.8105822 C21.4733219,25.5245548 21.7282192,25.3584247 21.7371575,25.3528767 L23.6835616,24.1018151 L21.9316438,24.190274 L20.4845548,24.2633219 C21.3799315,23.3775 22.0925342,22.2669863 22.6254452,21.2551027 C22.6260616,21.2591096 22.6260616,21.2631164 22.6266781,21.2674315 L22.8214726,22.592774 L23.7088356,21.5787329 C23.7217808,21.5636301 23.9455479,21.3142808 24.4698288,21.089589 C24.4276027,21.5688699 24.4269863,22.1686644 24.5428767,22.7847945 C24.6448973,23.3266438 24.8366096,23.8808219 25.1824315,24.3770548 C24.4914041,22.3656164 26.0821233,19.4366096 26.0821233,19.4366096 L25.1186301,19.6181507 C24.5518151,19.7247945 24.1008904,19.8906164 23.7513699,20.0647603 C23.6980479,19.6095205 23.6912671,19.17 23.7183904,18.7449658 C23.7717123,18.5908562 23.8034589,18.4916096 23.8114726,18.4647945 L23.744589,18.4438356 C23.9378425,16.6225685 24.7968493,15.1024315 25.7264384,13.9509247 C27.0033904,12.3688356 28.4134932,11.4842466 28.4134932,11.4842466 C28.4023973,11.4873288 28.2057534,11.5455822 27.8941438,11.6725685 C28.3456849,10.7543836 28.8668836,9.57883562 29.2675685,8.34719178 C29.6050685,8.41006849 29.9413356,8.51578767 30.2705137,8.64400685 C32.047089,9.33719178 33.5851027,10.7808904 33.6035959,10.7987671 L34.7227397,11.8652055 L34.6450685,10.3216438 C34.6364384,10.1555137 34.6725,9.93421233 34.7347603,9.68979452 C35.6902397,11.972774 37.6230822,14.7664726 37.902637,15.1659247 L39.3364726,17.2128082 L39.0193151,14.7341096 C39.0063699,14.6323973 39.0057534,14.5081849 39.015,14.3701027 C39.6813699,15.4066438 40.5955479,16.327911 41.229863,16.9070548 C41.0840753,17.2004795 40.9376712,17.6868493 40.8612329,18.5023973 C40.8128425,19.0205137 40.9814384,19.3990068 41.2548288,19.677637 C41.6841781,20.1146918 42.3739726,20.3036301 42.9044178,20.3840753 Z M35.219589,28.6218493 L31.9919178,34.2425342 C31.9919178,34.2425342 31.3588356,33.6328767 30.9159247,33.3138699 C31.8350342,32.6237671 34.1331164,30.7202055 34.9449658,28.3962329 L34.9477397,28.3983904 C34.9492808,28.3906849 34.9514384,28.3832877 34.9526712,28.3755822 C35.1357534,28.302226 35.3135959,28.2307192 35.4883562,28.1598288 C35.3980479,28.3164041 35.3068151,28.4649658 35.2161986,28.6193836 L35.219589,28.6218493 Z M23.9671233,43.1361986 L23.9551027,43.1158562 C23.9551027,43.1158562 23.965274,43.119863 23.9785274,43.1251027 C23.9748288,43.1288014 23.9708219,43.1328082 23.9671233,43.1361986 Z M24.652911,13.2232192 C23.2628425,12.5241781 21.8940411,12.9584589 21.2766781,13.3656164 C21.2766781,13.3656164 23.4995548,13.0518493 24.409726,14.1796233 C24.2044521,14.4225 24.0078082,14.685411 23.8228767,14.9683562 C23.0772945,14.792363 22.0595548,15.0358562 21.1318151,15.2590068 L21.0458219,15.2799658 C20.5813356,15.3912329 20.2034589,15.0891781 20.0327055,14.9175 C19.6520548,10.9245205 22.2885616,9.62044521 22.7234589,9.4339726 C23.4400685,9.34982877 24.0167466,9.50208904 24.4849315,9.89691781 C25.4311644,10.6958219 25.6872945,12.2575685 25.7538699,12.9032877 C25.7279795,12.9233219 25.702089,12.9415068 25.6758904,12.9621575 C25.212637,11.9875685 24.1896575,10.5031849 22.1569521,10.1521233 C22.1569521,10.1521233 24.0639041,11.1717123 24.652911,13.2232192 Z M13.4987671,32.7002055 C12.2868493,31.0703425 11.0773973,29.2666438 9.89506849,27.2736986 C12.6554795,26.3484247 14.1050342,25.3155822 14.8561644,24.4192808 C15.9358562,23.1309247 15.5718493,22.1242808 15.5718493,22.1242808 C15.4969521,22.4476027 15.3662671,22.7456507 15.1979795,23.0208904 C14.7328767,23.7818836 13.9734247,24.3622603 13.2537329,24.7771233 C13.3539041,24.5416438 13.4358904,24.309863 13.5043151,24.0885616 C13.7758562,23.2119863 13.824863,22.5067808 13.8282534,22.4509932 L13.8803425,21.6160274 L13.0675685,21.8139041 C10.4430822,22.4525342 9.10818493,23.7433562 8.45044521,24.712089 C7.89318493,23.6743151 7.34455479,22.5930822 6.80763699,21.4619178 C6.87143836,18.8540753 9.02681507,15.9746918 9.02681507,15.9746918 C7.35133562,17.1795205 6.48431507,18.6531164 6.03770548,19.7898288 C6.03246575,19.7781164 6.02722603,19.7657877 6.0219863,19.7537671 C5.60558219,18.8186301 5.19719178,17.8529795 4.79835616,16.8555822 C5.59571918,16.100137 7.73291096,14.1978082 9.97890411,13.2210616 C10.3259589,13.0703425 10.6754795,12.9396575 11.0231507,12.8407192 L12.1259589,12.5269521 L11.2558562,11.780137 C11.2136301,11.7440753 10.5429452,11.179726 9.40684932,10.8656507 C10.6908904,10.3003767 12.5090753,9.73541096 14.3189384,9.97736301 C14.3189384,9.97736301 11.6614726,8.19616438 4.89667808,12.1913014 L7.34763699,11.9206849 C8.16934932,11.8297603 8.85143836,11.9613699 9.36770548,12.1413699 C7.25886986,13.0860616 5.32541096,14.6971233 4.31599315,15.6183904 C4.23585616,15.4088014 4.15726027,15.194589 4.07804795,14.982226 C3.59969178,13.6981849 3.13643836,12.3666781 2.6919863,10.982774 C4.12458904,8.95130137 6.96821918,8.71119863 6.9959589,8.7090411 L7.85958904,8.6480137 L7.51962329,7.85219178 C7.20092466,7.10537671 6.3835274,6.46797945 5.64195205,6.0155137 C7.91476027,5.56058219 10.6730137,5.87065068 10.7069178,5.87434932 L11.5948973,5.97760274 L11.3757534,5.11119863 C11.1655479,4.28023973 10.7993836,3.63667808 10.427363,3.15893836 C14.3386644,3.21934932 16.7477055,4.72130137 16.7732877,4.73763699 L18.0761301,5.57599315 L17.7056507,4.07188356 C17.4448973,3.01315068 16.9468151,2.10760274 16.4989726,1.45078767 C19.7926027,1.9815411 22.6454795,4.84273973 22.6775342,4.87541096 L23.6364041,5.84907534 L23.7322603,4.48643836 C23.7935959,3.61263699 23.6733904,2.87630137 23.4924658,2.28976027 C25.5735616,3.58520548 26.6988699,6.09780822 26.7121233,6.1280137 L26.9377397,6.6439726 L27.4718836,6.46613014 C27.9089384,6.32065068 28.2969863,6.06914384 28.6233904,5.79174658 C28.4507877,7.12140411 27.9160274,8.61441781 27.362774,9.8855137 C27.135,10.4085616 26.9044521,10.8949315 26.6942466,11.3153425 C26.4535274,10.5016438 26.0294178,9.58931507 25.2838356,8.95839041 C24.5280822,8.31821918 23.5858562,8.07195205 22.4827397,8.22174658 L22.3539041,8.25380137 C22.32,8.26643836 19.5808562,9.31808219 18.909863,12.6308219 C17.7780822,12.7541096 14.8891438,13.1517123 12.5432877,14.1743836 C12.394726,14.2391096 12.2480137,14.3059932 12.1043836,14.3759589 L10.4967123,15.1585274 L12.2455479,15.5330137 C12.2600342,15.5360959 13.2423288,15.7518493 14.2539041,16.2752055 C12.8949658,16.472774 11.1097603,17.0284932 10.0855479,18.5406164 C13.5638014,16.2465411 17.6366096,17.5265753 17.6366096,17.5265753 L16.4817123,16.3639726 C15.7993151,15.6769521 14.924589,15.1955137 14.1688356,14.8740411 C15.9118151,14.2964384 17.7756164,14.0116438 18.767774,13.8902055 C18.7545205,14.3136986 18.7714726,14.7649315 18.8278767,15.247911 L18.8469863,15.4115753 L18.9453082,15.5441096 C18.9946233,15.6106849 19.0584247,15.6825 19.1283904,15.7558562 C19.4997945,16.1439041 20.1452055,16.5757192 20.9441096,16.5353425 C21.0704795,16.5288699 21.2002397,16.5106849 21.3333904,16.4786301 L21.4203082,16.4576712 C21.4292466,16.4555137 21.4400342,16.4530479 21.4492808,16.4508904 C21.2606507,16.9643836 20.9974315,17.4230137 20.7132534,17.8224658 C19.9229795,18.9329795 18.9662671,19.5743836 18.9662671,19.5743836 C19.9439384,19.4785274 20.6879795,19.0914041 21.2529452,18.5988699 C22.1569521,17.8110616 22.6001712,16.752637 22.7863356,16.1738014 C22.9352055,16.1516096 23.075137,16.1365068 23.1984247,16.1306507 C22.9413699,16.724589 22.7413356,17.3869521 22.625137,18.1266781 C22.5610274,18.3239384 22.1344521,19.5984247 21.3756164,20.9749315 C20.6232534,22.3406507 19.5441781,23.8068493 18.1676712,24.4220548 L15.1597603,25.7665068 L17.0337329,25.6718836 L19.3993151,25.5526027 C19.0556507,25.8340068 18.6833219,26.1607192 18.3076027,26.5167123 C17.467089,27.3134589 16.6090068,28.2735616 16.0092123,29.3221233 L15.312637,30.5398973 L16.3824658,30.2970205 L16.6811301,30.2292123 C17.2226712,30.1062329 18.032363,29.9724658 18.7514384,29.9290068 C18.5110274,30.1675685 18.2484247,30.4505137 17.9796575,30.7722945 C17.0731849,31.8587671 16.094589,33.4125 15.6405822,35.4069863 C14.9292123,34.5633904 14.2135274,33.6618493 13.4987671,32.7002055 Z M9.14640411,25.977637 C9.3889726,25.4185274 10.1832534,24.0793151 12.4465068,23.2813356 C12.2720548,24.0195205 11.9040411,25.0471233 11.1455137,25.7298288 L9.73479452,27.0003082 C9.53784247,26.6646575 9.34181507,26.3240753 9.14640411,25.977637 Z M1.49578767,6.97407534 C1.95657534,6.83876712 2.70061644,6.63503425 3.69493151,6.40756849 L3.77291096,6.43962329 C4.36006849,6.68157534 5.24219178,7.15253425 5.82996575,7.66017123 C4.84767123,7.89349315 3.38547945,8.41869863 2.25400685,9.57914384 C1.99479452,8.72722603 1.74020548,7.86328767 1.49578767,6.97407534 Z M29.8399315,5.93383562 C31.4149315,6.20013699 32.9868493,6.51976027 34.5547603,6.88993151 L34.2681164,7.46784247 C34.2067808,7.59205479 33.8304452,8.36630137 33.5974315,9.18030822 C32.6974315,8.48065068 31.1973288,7.48479452 29.6090753,7.15407534 C29.7086301,6.74321918 29.7875342,6.33452055 29.8399315,5.93383562 Z M44.6023973,8.61688356 L44.602089,8.61719178 C43.6216438,8.20325342 41.7411986,7.61455479 40.0096233,7.10291096 C38.7995548,6.72719178 37.5857877,6.38167808 36.3689384,6.06791096 C36.2857192,6.04510274 36.237637,6.03215753 36.237637,6.03215753 L36.2422603,6.03585616 C35.9454452,5.96003425 35.6486301,5.88328767 35.3515068,5.81085616 L35.3299315,5.32571918 L35.1166438,5.75630137 C33.3832192,5.3405137 31.6442466,4.9869863 29.9018836,4.6960274 C29.8932534,4.46856164 29.8766096,4.24510274 29.8405479,4.03150685 L29.5560616,2.34986301 L28.6995205,3.825 C28.6961301,3.83085616 28.5244521,4.11503425 28.2433562,4.43743151 C27.8614726,4.38226027 27.479589,4.33356164 27.0977055,4.28455479 C26.2430137,2.95058219 24.6532192,1.0334589 22.3209247,0.463869863 L20.4090411,0 L21.7165068,1.47544521 C21.7433219,1.50565068 22.1945548,2.0265411 22.4069178,2.99465753 C20.9071233,1.79660959 18.1242123,-0.00893835616 15.1212329,0.142705479 L13.7256164,0.212979452 L14.7186986,1.19619863 C14.7282534,1.20606164 15.427911,1.90664384 15.9833219,2.98818493 C14.5380822,2.40996575 12.075411,1.73280822 8.86931507,1.97445205 L6.85263699,2.12886986 L8.61256849,3.12565068 C8.62058219,3.13027397 9.14979452,3.45205479 9.61674658,4.14832192 C4.02380137,4.80390411 0.714760274,5.91996575 0.544623288,5.9785274 L0,6.16561644 L0.149486301,6.72164384 C5.55934932,26.8400342 14.8311986,37.572226 21.6567123,43.0329452 C21.8416438,43.1808904 22.024726,43.3229795 22.2071918,43.4635274 C22.2087329,43.4650685 22.2099658,43.4666096 22.2115068,43.4678425 C22.9413699,44.1188014 24.3678082,44.8739384 24.3678082,44.8739384 L24.6633904,44.5971575 C24.6640068,44.5974658 24.6646233,44.5974658 24.6649315,44.597774 C24.7117808,44.5540068 24.765411,44.5025342 24.8156507,44.4547603 L24.8677397,44.4063699 L24.8674315,44.4057534 C25.2215753,44.0682534 25.6614041,43.6370548 26.1730479,43.1124658 L26.2790753,43.2117123 C26.3200685,43.2499315 26.4766438,43.3907877 26.7161301,43.5526027 C27.5517123,44.022637 27.9015411,44.0882877 27.9015411,44.0882877 C28.132089,44.1428425 28.3777397,44.1727397 28.6338699,44.1597945 C28.6788699,44.157637 28.7241781,44.1542466 28.7697945,44.1490068 C29.4189041,44.0790411 29.9829452,43.7517123 30.4505137,43.174726 C31.3542123,43.0449658 32.6715411,42.5092808 32.9128767,41.1577397 C33.1372603,41.0101027 33.4081849,40.7647603 33.6100685,40.3671575 C33.9435616,39.7106507 33.9780822,38.8590411 33.7238014,37.832363 L33.7342808,37.8212671 C33.5641438,37.0969521 33.1169178,36.1599658 32.9440068,35.812911 C32.8555479,35.6446233 32.7646233,35.4868151 32.6724658,35.3339384 C34.3615068,32.9985616 36.122363,30.2742123 37.7938356,27.1867808 C38.1485959,27.0302055 38.4823973,26.8797945 38.7909247,26.7364726 C40.3098288,26.0112329 42.2611644,24.8023973 42.2611644,24.8023973 L42.2611644,24.8027055 C43.0249315,24.21 43.0310959,23.8946918 43.0329452,23.7143836 C43.0394178,23.1765411 43.0203082,22.7832534 42.9984247,22.5166438 C43.642911,22.0672603 44.3595205,21.2378425 44.0852055,20.1994521 C45.4321233,19.1385616 44.5783562,16.2508562 44.5783562,16.2508562 C44.3068151,16.3698288 43.327911,16.4228425 42.5746233,16.4462671 C42.557363,16.432089 42.5360959,16.4132877 42.517911,16.3981849 C43.1799658,14.4530137 43.7702055,12.4184589 44.2722945,10.2997603 L44.2836986,10.3065411 C44.2796918,10.3028425 44.277226,10.2991438 44.2732192,10.2954452 C44.3925,9.79273973 44.5123973,9.29126712 44.6211986,8.77931507 L44.6227397,8.77993151 L44.6566438,8.64 L44.6023973,8.61688356 L44.6023973,8.61688356 Z" id="Fill-68-Copy" fill="#1A1919"></path>
                        </g>
                    </g>
                </g>
            </g>
        </g>
    </g>
</svg>