<svg width="125" height="29" viewBox="0 0 125 29" version="1.1" xmlns="http://www.w3.org/2000/svg" xmlns:xlink="http://www.w3.org/1999/xlink">
<g id="Canvas" fill="none">
<g id="Vector">
<path d="M 0 29L 13.0026 0L 25.9253 29L 23.0536 29L 19.0651 19.8503L 6.94001 19.8503L 2.9515 29L 0 29ZM 7.89726 17.5241L 18.0281 17.5241L 13.0026 5.97059L 7.89726 17.5241ZM 30.0734 29L 30.0734 0.775401L 37.8111 0.775401C 39.8054 0.775401 41.6401 1.31818 43.395 2.40374C 45.15 3.4893 46.0274 5.50535 46.0274 8.37433C 46.0274 9.53743 45.7881 10.7005 45.2297 11.7861C 44.7511 12.8717 43.7939 13.8021 42.4378 14.5775C 41.0817 15.3529 39.247 15.8182 36.8539 15.9733L 47.1442 29L 43.8736 29L 33.9821 16.0508L 32.9451 16.0508L 32.9451 29L 30.0734 29ZM 32.8653 13.8021L 35.7371 13.8021C 40.6828 13.8021 43.0759 12.0187 43.0759 8.45187C 43.0759 6.28075 42.4378 4.80749 41.1615 4.10963C 39.8851 3.41176 38.2897 3.1016 36.2955 3.1016L 32.7058 3.1016L 32.7058 13.8021L 32.8653 13.8021ZM 51.4518 29L 51.4518 0.775401L 54.2438 0.775401L 54.2438 13.8797L 67.2463 0.775401L 70.7562 0.775401L 56.956 14.4225L 70.9955 29L 67.2463 29L 54.2438 15.2754L 54.2438 29L 51.4518 29ZM 75.0638 29L 75.0638 0.775401L 90.619 0.775401L 90.619 3.02406L 77.8558 3.02406L 77.8558 12.0187L 90.1404 12.0187L 90.1404 14.2674L 77.8558 14.2674L 77.8558 26.6738L 90.5392 26.6738L 90.5392 28.9225L 75.0638 28.9225L 75.0638 29ZM 96.6018 29L 96.6018 0.775401L 99.3937 0.775401L 99.3937 26.6738L 108.727 26.6738L 108.727 28.9225L 96.6018 28.9225L 96.6018 29ZM 112.875 29L 112.875 0.775401L 115.667 0.775401L 115.667 26.6738L 125 26.6738L 125 28.9225L 112.875 28.9225L 112.875 29Z" fill="#fff"/>
</g>
</g>
</svg>

