<svg width="370" height="67" viewBox="0 0 370 67" version="1.1" xmlns="http://www.w3.org/2000/svg" xmlns:xlink="http://www.w3.org/1999/xlink">
<g id="Canvas" fill="none">
<g id="Logo">
<g id="Vector">
<path d="M 278.933 0L 0 0L 0 3.64469L 278.933 3.64469L 278.933 0Z" transform="translate(91.0667 58.9221)" fill="#404040" fill-opacity="0.3"/>
</g>
<g id="Vector_2">
<path d="M 253.832 35.727C 252.891 34.8159 253.205 31.7786 253.205 30.5637L 253.205 7.78443C 253.205 5.35464 252.577 2.62112 255.401 1.70995L 255.401 0.798774C 251.322 0.798774 247.243 0.798774 242.851 0.798774L 242.851 2.01367C 245.675 2.62112 245.047 5.96208 245.047 7.78443C 245.047 11.7328 245.047 15.6813 245.047 19.6297C 245.047 23.2744 245.047 26.919 245.047 30.5637C 245.047 32.6898 245.675 35.727 242.851 36.3345L 242.851 37.5494L 255.401 37.5494L 255.401 36.3345C 254.774 36.3345 254.146 36.0308 253.832 35.727ZM 274.854 33.601C 269.834 28.1339 264.5 22.6669 260.421 16.2887C 264.814 10.8217 269.521 4.13974 275.482 0.495051L 266.697 0.495051C 263.873 7.4807 258.539 14.1626 253.832 20.2371C 257.911 25.7041 262.618 31.1712 266.069 37.5494L 278.933 37.5494C 277.678 36.3345 276.109 35.1196 274.854 33.601ZM 176.334 21.7557L 181.667 6.87326L 186.688 21.7557L 176.334 21.7557ZM 197.669 29.3488C 195.787 24.4893 194.218 19.6297 192.335 14.7701C 190.767 10.2142 188.57 5.65836 187.629 0.798774L 176.647 0.798774L 176.647 2.01367C 179.471 2.62112 178.844 5.35464 177.902 7.4807C 176.647 11.1254 175.079 14.4664 173.51 17.8073C 170.686 24.4893 168.49 31.4749 164.411 37.5494L 171.313 37.5494C 171.627 32.9935 173.51 28.4377 174.765 24.1855L 187.001 24.1855C 188.57 28.4377 190.767 32.9935 191.08 37.5494L 200.807 37.5494C 199.866 34.8159 198.611 32.0824 197.669 29.3488ZM 236.262 0.798774C 232.81 0.798774 229.359 0.798774 225.908 0.798774L 225.908 2.01367C 228.418 2.62112 228.104 5.05091 228.104 7.17698C 228.104 10.5179 228.104 13.8589 228.104 16.8961L 213.357 16.8961C 213.357 13.5552 213.357 10.5179 213.357 7.17698C 213.357 5.35464 213.357 2.62112 215.554 2.01367L 215.554 0.798774C 211.475 0.798774 207.396 0.798774 203.003 0.798774L 203.003 2.01367C 205.513 2.62112 205.2 5.65836 205.2 7.78443C 205.2 11.7328 205.2 15.3775 205.2 19.3259C 205.2 22.9706 205.2 26.919 205.2 30.5637C 205.2 32.6898 205.827 36.0308 203.003 36.6382L 203.003 37.8531L 215.554 37.8531L 215.554 36.6382C 212.102 35.727 213.357 28.7414 213.357 26.0079L 213.357 19.3259L 228.104 19.3259C 228.104 22.9706 228.104 26.919 228.104 30.5637C 228.104 32.6898 228.418 36.0308 225.908 36.6382L 225.908 37.8531L 238.458 37.8531L 238.458 36.6382C 235.007 35.727 236.262 28.7414 236.262 26.0079L 236.262 26.3116L 236.262 12.3403L 236.262 12.644C 236.262 9.9105 235.007 2.92484 238.458 2.01367L 238.458 0.798774L 236.262 0.798774ZM 155.312 30.8675C 154.684 32.9935 153.115 34.5121 150.919 35.1196C 149.036 35.727 146.213 35.727 144.957 33.9047C 144.016 32.3861 144.644 29.0451 144.644 27.2228C 144.644 23.5781 144.644 19.9334 144.644 15.985C 148.723 15.985 153.115 15.6813 155.312 19.6297C 156.88 23.2744 156.567 27.5265 155.312 30.8675ZM 160.959 16.5924C 156.567 13.5552 149.978 14.1626 144.644 14.1626C 144.644 11.1254 142.761 4.44346 146.526 3.22857C 148.723 2.31739 152.801 2.92484 155.312 3.22857C 158.763 3.53229 159.704 5.96208 160.645 8.99932L 162.528 8.99932L 162.528 0.798774C 153.115 0.798774 143.702 0.798774 134.29 0.798774L 134.29 2.01367C 138.055 2.92484 136.486 9.9105 136.486 12.3403L 136.486 26.0079C 136.486 28.7414 137.741 35.727 134.29 36.6382L 134.29 37.8531C 139.937 37.8531 145.271 38.1568 150.919 37.8531C 154.37 37.8531 158.135 37.2457 160.959 35.1196C 165.979 30.8675 166.607 20.2371 160.959 16.5924ZM 120.798 18.111C 119.229 21.1483 115.15 20.5408 112.013 20.5408C 112.013 15.6813 111.699 10.8217 112.013 5.96208C 112.013 4.44346 112.013 3.53229 113.581 2.92484C 114.836 2.62112 117.033 2.92484 117.974 3.22857C 123.622 5.35464 122.994 13.8589 120.798 18.111ZM 126.446 2.31739C 122.994 0.49505 118.915 0.495051 115.464 0.495051C 111.071 0.495051 106.365 0.495051 101.972 0.495051L 101.972 1.70995C 104.796 2.3174 104.169 5.35464 104.169 7.4807C 104.169 11.4291 104.169 15.3775 104.169 19.3259C 104.169 22.9706 104.169 26.6153 104.169 30.26C 104.169 32.3861 104.796 35.4233 101.972 36.0308L 101.972 37.2457L 114.523 37.2457L 114.523 36.0308C 112.326 35.4233 112.326 33.2972 112.326 31.4749C 112.326 28.4377 112.326 25.7041 112.326 22.6669C 118.602 22.6669 126.759 23.2744 129.897 16.8961C 131.78 12.644 131.466 5.35463 126.446 2.31739ZM 93.1869 32.3861C 91.9319 36.3345 84.7154 36.0308 81.5778 34.8159C 79.6952 34.2084 79.3815 32.3861 79.3815 30.5637C 79.0677 26.919 79.3815 23.2744 79.3815 19.3259C 82.8328 19.3259 88.1668 18.7185 91.3044 20.5408L 91.3044 15.985C 88.1668 17.8073 82.8328 17.1999 79.3815 17.1999C 79.3815 13.8589 79.0677 10.5179 79.3815 7.17698C 79.3815 4.44346 79.6952 2.92484 82.5191 2.92484C 84.7154 2.92484 87.2255 2.62112 89.1081 3.22857C 91.9319 3.83602 92.8732 6.26581 93.5007 8.6956L 95.3833 8.6956L 95.3833 0.798774C 86.598 0.798774 77.8127 0.798774 69.0274 0.798774L 69.0274 2.01367C 71.8512 2.62112 71.2237 5.65836 71.2237 7.78443C 71.2237 11.7328 71.2237 15.6813 71.2237 19.6297C 71.2237 23.2744 71.2237 26.919 71.2237 30.5637C 71.2237 32.6898 71.8512 35.727 69.0274 36.3345L 69.0274 37.5494L 96.3246 37.5494L 96.3246 29.0451L 94.1282 29.0451C 93.8145 30.5637 93.5007 31.7786 93.1869 32.3861ZM 55.8494 30.8675C 55.2219 32.9935 53.6531 34.5121 51.4568 35.1196C 49.5742 35.727 46.7504 35.727 45.4953 33.9047C 44.554 32.3861 45.1816 29.0451 45.1816 27.2228C 45.1816 23.5781 45.1816 19.9334 45.1816 15.985C 49.2604 15.985 53.6531 15.6813 55.8494 19.6297C 57.1045 23.2744 56.7907 27.5265 55.8494 30.8675ZM 61.1833 16.5924C 56.7907 13.5552 50.2017 14.1626 44.8678 14.1626C 44.8678 11.1254 42.9852 4.44346 46.7504 3.22857C 48.9467 2.31739 53.0256 2.92484 55.5357 3.22857C 58.987 3.53229 59.9283 5.96208 60.8696 8.99932L 62.7522 8.99932L 62.7522 0.798774C 53.3393 0.798774 43.9265 0.798774 34.5137 0.798774L 34.5137 2.01367C 37.1351 2.01367 37.1351 8.99932 37.1351 8.99932L 37.1351 32.3861C 37.1351 32.3861 37.1351 37.1754 34.5137 36.9419L 34.5137 38.1568C 40.1614 38.1568 45.4953 38.4606 51.143 38.1568C 54.5944 38.1568 58.3595 37.5494 61.1833 35.4233C 66.2035 30.8675 66.831 20.2371 61.1833 16.5924ZM 27.9247 33.601C 23.2183 35.727 16.0018 36.0308 12.2367 31.7786C 8.47155 27.5265 8.7853 20.8446 8.7853 15.6813C 9.09906 11.1254 9.72658 5.05091 15.0605 3.22857C 20.0807 1.40622 26.3559 3.83602 27.2972 9.30305L 29.8073 9.30305L 29.8073 2.01367C 23.5321 -0.719845 14.7468 -0.719846 8.47154 2.31739C 2.19633 5.65836 0 12.9477 0 19.3259C 0 25.7041 1.88256 32.6898 7.84402 36.0308C 14.7468 39.9792 24.1596 38.7643 31.0623 34.8159L 29.8073 32.3861C 29.1798 32.9935 28.5522 33.2972 27.9247 33.601Z" transform="translate(91.0667 11.9578)" fill="#404040" fill-opacity="0.3"/>
</g>
<g id="Vector_3">
<path d="M 22.0393 41.9139L 0.0760416 29.765C -1.179 48.2921 13.254 64.6932 32.0796 66.8193C 50.2778 68.6416 67.8484 56.4927 71.2997 38.8767C 72.8685 31.2836 71.6135 23.3868 67.8484 16.4011L 22.0393 41.9139ZM 22.0393 33.1059L 1.64485 21.8681C 1.33108 23.083 1.01732 24.2979 0.703563 25.8165L 22.0393 37.6618L 65.9658 13.0601C 65.3383 12.149 64.397 10.9341 63.4557 10.0229L 22.0393 33.1059ZM 22.0393 24.2979L 4.78245 14.8825C 4.15493 15.7937 3.52741 17.0085 2.89989 18.2234L 21.7255 28.8538L 60.9456 6.98565C 60.0043 6.07448 58.7493 5.16331 57.808 4.25214L 22.0393 24.2979ZM 22.0393 15.4899L 9.48886 8.808C 8.54758 9.71917 7.92006 10.6303 6.97878 11.8452L 22.0393 20.0458L 54.3567 2.12607C 53.1016 1.2149 51.5328 0.607448 50.2778 0L 22.0393 15.4899Z" fill="#404040" fill-opacity="0.3"/>
</g>
</g>
</g>
</svg>

