<svg width="532" height="504" viewBox="0 0 532 504" fill="none" xmlns="http://www.w3.org/2000/svg">
<g opacity="0.03">
<path d="M0 189.6V63.2L110.688 6.02722e-06" transform="translate(266 299.4)" stroke="#404040" stroke-width="25" stroke-miterlimit="10"/>
<path d="M0 6.02722e-06L110.688 63.2" transform="translate(155.312 299.4)" stroke="#404040" stroke-width="25" stroke-miterlimit="10"/>
<path d="M0 189.6L110.688 252.8L221.375 189.6V63.2L110.688 6.02722e-06L0 63.2V189.6Z" transform="translate(155.312 236.2)" stroke="#404040" stroke-width="25" stroke-miterlimit="10"/>
<path d="M0 189.6V63.2L110.688 -1.50681e-06" transform="translate(408.312 78.2)" stroke="#404040" stroke-width="25" stroke-miterlimit="10"/>
<path d="M0 -1.50681e-06L110.688 63.2" transform="translate(297.625 78.2)" stroke="#404040" stroke-width="25" stroke-miterlimit="10"/>
<path d="M0 189.6L110.688 252.8L221.375 189.6V63.2L110.688 3.76701e-07L0 63.2V189.6Z" transform="translate(297.625 15)" stroke="#404040" stroke-width="25" stroke-miterlimit="10"/>
<path d="M0 189.6V63.2L110.688 -1.50681e-06" transform="translate(123.688 78.2)" stroke="#404040" stroke-width="25" stroke-miterlimit="10"/>
<path d="M0 -1.50681e-06L110.688 63.2" transform="translate(13 78.2)" stroke="#404040" stroke-width="25" stroke-miterlimit="10"/>
<path d="M0 189.6L110.688 252.8L221.375 189.6V63.2L110.688 3.76701e-07L0 63.2V189.6Z" transform="translate(13 15)" stroke="#404040" stroke-width="25" stroke-miterlimit="10"/>
</g>
</svg>
