<svg width="546" height="547" viewBox="0 0 546 547" fill="none" xmlns="http://www.w3.org/2000/svg">
<g opacity="0.03">
<path d="M83.904 535.9L37.104 423.4C13.504 366.9 1.10401 307.3 0.00401337 246.1C-0.195987 237 7.10401 229.4 16.304 229.3C25.404 229.1 33.004 236.4 33.104 245.6C34.104 302.6 45.704 358.1 67.604 410.7L114.504 523.2C118.004 531.6 114.004 541.3 105.604 544.8C103.504 545.7 101.404 546.1 99.204 546.1C92.704 546.1 86.604 542.3 83.904 535.9ZM514.204 535.9L473.004 436.9C469.504 428.5 473.504 418.8 481.904 415.3C490.304 411.8 500.004 415.8 503.504 424.2L544.704 523.2C548.204 531.6 544.204 541.3 535.804 544.8C533.704 545.7 531.604 546.1 529.404 546.1C523.004 546.1 516.904 542.3 514.204 535.9ZM441.704 339.7C434.104 304.3 430.204 267.9 430.204 231.7C430.204 171.2 403.104 114.7 355.904 76.8C348.804 71.1 347.604 60.7 353.404 53.5C359.104 46.4 369.504 45.2 376.704 51C431.804 95.3 463.404 161.1 463.404 231.7C463.404 265.6 467.004 299.6 474.204 332.7C476.104 341.6 470.404 350.4 461.504 352.4C460.304 352.7 459.204 352.8 458.004 352.8C450.204 352.7 443.404 347.4 441.704 339.7ZM28.104 164.2C19.704 160.6 15.804 150.9 19.404 142.5C35.504 104.9 60.704 72 92.504 47.3C125.504 21.7 164.704 5.8 205.804 1.4C214.404 0.5 223.104 0 231.604 0C248.204 0 264.804 1.8 280.904 5.3C289.804 7.2 295.504 16 293.604 25C291.704 33.9 282.904 39.6 273.904 37.7C260.104 34.7 245.904 33.2 231.604 33.2C224.204 33.2 216.704 33.6 209.304 34.4C139.604 42 78.504 88.4 49.804 155.6C47.104 161.9 41.004 165.7 34.604 165.7C32.504 165.5 30.304 165.1 28.104 164.2Z" fill="#404040"/>
<path d="M84.004 469.8L37.104 357.3C13.604 300.8 1.10401 241.2 0.00401185 180C-0.195988 170.9 7.10401 163.3 16.304 163.2C25.404 163 33.004 170.3 33.104 179.5C34.104 236.5 45.704 292 67.604 344.6L114.504 457.1C118.004 465.5 114.004 475.2 105.604 478.7C103.504 479.6 101.404 480 99.204 480C92.804 480 86.704 476.2 84.004 469.8ZM381.904 469.8L337.404 362.9C313.304 305.1 300.104 244.1 298.204 181.5C297.904 172.4 305.104 164.7 314.204 164.4C323.304 164.1 331.004 171.3 331.304 180.4C333.104 238.9 345.504 296 368.004 350.1L412.604 457C416.104 465.4 412.104 475.1 403.704 478.6C401.604 479.5 399.504 479.9 397.304 479.9C390.704 480 384.604 476.2 381.904 469.8ZM277.504 94.9C253.104 56.2 211.204 33.2 165.504 33.2C162.604 33.2 159.604 33.3 156.704 33.5C115.704 36.2 78.904 58.3 55.704 94.3C50.704 102 40.504 104.2 32.804 99.2C25.104 94.2 22.904 84 27.904 76.3C56.804 31.4 103.004 3.8 154.604 0.4C158.304 0.2 161.904 -1.52588e-06 165.604 -1.52588e-06C222.704 -1.52588e-06 275.004 28.8 305.504 77.1C310.404 84.8 308.104 95 300.404 99.9C297.704 101.6 294.604 102.5 291.604 102.5C286.004 102.6 280.604 99.9 277.504 94.9Z" transform="translate(66.1 66.1)" fill="#404040"/>
<path d="M245.923 403.6L201.423 296.7C191.923 273.8 183.923 250 177.823 225.9C175.523 217 180.923 208 189.823 205.8C198.723 203.5 207.723 208.9 209.923 217.8C215.623 240.3 223.123 262.6 232.023 284L276.623 390.9C280.123 399.3 276.123 409 267.723 412.5C265.623 413.4 263.523 413.8 261.323 413.8C254.723 413.8 248.623 410 245.923 403.6ZM80.423 403.6L33.523 291.1C16.723 250.8 5.52296 208.4 0.122963 165.1C-0.977037 156 5.42296 147.8 14.523 146.6C23.623 145.5 31.823 151.9 33.023 161C38.023 201.4 48.523 240.9 64.123 278.4L111.023 390.9C114.523 399.3 110.523 409 102.123 412.5C100.023 413.4 97.923 413.8 95.723 413.8C89.223 413.8 83.123 410 80.423 403.6ZM162.523 124.6C162.123 116.2 161.923 107.7 161.923 99.3C161.923 62.8 132.223 33.1 95.723 33.1C93.523 33.1 91.323 33.2 89.123 33.4C66.423 35.6 46.723 50 36.323 72C32.423 80.3 22.623 83.8 14.323 80C6.02296 76.1 2.52296 66.3 6.32296 58C21.623 25.3 51.423 3.8 85.923 0.500003C89.123 0.200003 92.423 3.05176e-06 95.623 3.05176e-06C150.323 3.05176e-06 194.923 44.5 194.923 99.3C194.923 107.1 195.123 115.1 195.523 122.9C196.023 132 188.923 139.8 179.823 140.2C179.523 140.2 179.223 140.2 179.023 140.2C170.323 140.4 163.023 133.5 162.523 124.6Z" transform="translate(135.881 132.3)" fill="#404040"/>
<path d="M84 320.7L39.4 213.8C37.6 209.4 35.8 204.9 34 200.4C30.7 191.9 35 182.3 43.5 179C52 175.7 61.6 180 64.9 188.5C66.5 192.7 68.2 196.9 69.9 201L114.5 307.9C118 316.3 114 326 105.6 329.5C103.5 330.4 101.4 330.8 99.2 330.8C92.8 330.9 86.6 327.1 84 320.7ZM18.1 151.7C6.1 107.7 6.10352e-06 62.2 6.10352e-06 16.5C6.10352e-06 7.4 7.40001 -3.05176e-06 16.5 -3.05176e-06C25.6 -3.05176e-06 33 7.4 33 16.5C33 59.2 38.7 101.8 50 143C52.4 151.8 47.2 160.9 38.4 163.3C36.9 163.7 35.5 163.9 34 163.9C26.8 163.9 20.1 159 18.1 151.7Z" transform="translate(215.104 215.2)" fill="#404040"/>
</g>
</svg>
