<svg width="537" height="595" viewBox="0 0 537 595" fill="none" xmlns="http://www.w3.org/2000/svg">
<g opacity="0.03">
<path d="M89.4706 44.6052C89.4706 69.24 69.4419 89.2105 44.7353 89.2105C20.0287 89.2105 0 69.24 0 44.6052C0 19.9704 20.0287 0 44.7353 0C69.4419 0 89.4706 19.9704 89.4706 44.6052Z" transform="translate(223.765 490.79)" stroke="#404040" stroke-width="30" stroke-miterlimit="10"/>
<path d="M89.4706 44.6052C89.4706 69.24 69.4419 89.2105 44.7353 89.2105C20.0287 89.2105 0 69.24 0 44.6052C0 19.9704 20.0287 0 44.7353 0C69.4419 0 89.4706 19.9704 89.4706 44.6052Z" transform="translate(432.53 371.842)" stroke="#404040" stroke-width="30" stroke-miterlimit="10"/>
<path d="M89.4706 44.6052C89.4706 69.24 69.4419 89.2105 44.7353 89.2105C20.0287 89.2105 0 69.24 0 44.6052C0 19.9704 20.0287 0 44.7353 0C69.4419 0 89.4706 19.9704 89.4706 44.6052Z" transform="translate(432.53 133.947)" stroke="#404040" stroke-width="30" stroke-miterlimit="10"/>
<path d="M89.4706 44.6052C89.4706 69.24 69.4419 89.2105 44.7353 89.2105C20.0287 89.2105 0 69.24 0 44.6052C0 19.9704 20.0287 0 44.7353 0C69.4419 0 89.4706 19.9704 89.4706 44.6052Z" transform="translate(223.765 15)" stroke="#404040" stroke-width="30" stroke-miterlimit="10"/>
<path d="M89.4706 44.6052C89.4706 69.24 69.4419 89.2105 44.7353 89.2105C20.0287 89.2105 0 69.24 0 44.6052C0 19.9704 20.0287 0 44.7353 0C69.4419 0 89.4706 19.9704 89.4706 44.6052Z" transform="translate(223.765 252.895)" stroke="#404040" stroke-width="30" stroke-miterlimit="10"/>
<path d="M89.4706 44.6052C89.4706 69.24 69.4419 89.2105 44.7353 89.2105C20.0287 89.2105 0 69.24 0 44.6052C0 19.9704 20.0287 0 44.7353 0C69.4419 0 89.4706 19.9704 89.4706 44.6052Z" transform="translate(15 371.842)" stroke="#404040" stroke-width="30" stroke-miterlimit="10"/>
<path d="M89.4706 44.6052C89.4706 69.24 69.4419 89.2105 44.7353 89.2105C20.0287 89.2105 0 69.24 0 44.6052C0 19.9704 20.0287 0 44.7353 0C69.4419 0 89.4706 19.9704 89.4706 44.6052Z" transform="translate(15 133.947)" stroke="#404040" stroke-width="30" stroke-miterlimit="10"/>
<path d="M5.68839e-06 77.3157L131.223 -5.67185e-06" transform="translate(307.272 437.262)" stroke="#404040" stroke-width="30" stroke-miterlimit="10"/>
<path d="M0 0V148.684" transform="translate(477.265 223.158)" stroke="#404040" stroke-width="30" stroke-miterlimit="10"/>
<path d="M5.68839e-06 1.41796e-06L131.223 77.3158" transform="translate(307.272 80.4197)" stroke="#404040" stroke-width="30" stroke-miterlimit="10"/>
<path d="M-1.4221e-06 77.3158L131.223 1.41796e-06" transform="translate(98.5073 80.4197)" stroke="#404040" stroke-width="30" stroke-miterlimit="10"/>
<path d="M0 148.684V0" transform="translate(59.7352 223.158)" stroke="#404040" stroke-width="30" stroke-miterlimit="10"/>
<path d="M131.223 77.3157L-1.4221e-06 -5.67185e-06" transform="translate(98.5073 437.262)" stroke="#404040" stroke-width="30" stroke-miterlimit="10"/>
<path d="M0 148.892V0" transform="translate(268.5 342.365)" stroke="#404040" stroke-width="30" stroke-miterlimit="10"/>
<path d="M131.223 -5.67185e-06L-1.4221e-06 77.3158" transform="translate(98.5073 318.315)" stroke="#404040" stroke-width="30" stroke-miterlimit="10"/>
<path d="M5.68839e-06 -5.67185e-06L131.223 77.3158" transform="translate(307.272 318.315)" stroke="#404040" stroke-width="30" stroke-miterlimit="10"/>
<path d="M5.68839e-06 77.3158L131.223 -5.67185e-06" transform="translate(307.272 199.367)" stroke="#404040" stroke-width="30" stroke-miterlimit="10"/>
<path d="M0 148.684V0" transform="translate(268.5 104.21)" stroke="#404040" stroke-width="30" stroke-miterlimit="10"/>
<path d="M131.223 77.3158L-1.4221e-06 -5.67185e-06" transform="translate(98.5073 199.367)" stroke="#404040" stroke-width="30" stroke-miterlimit="10"/>
</g>
</svg>
