<svg width="402" height="595" viewBox="0 0 402 595" version="1.1" xmlns="http://www.w3.org/2000/svg" xmlns:xlink="http://www.w3.org/1999/xlink">
<g id="Canvas" fill="none">
<g id="Group" opacity="0.03">
<g id="Vector">
<path d="M 89.4706 44.6052C 89.4706 69.24 69.4419 89.2105 44.7353 89.2105C 20.0287 89.2105 0 69.24 0 44.6052C 0 19.9704 20.0287 0 44.7353 0C 69.4419 0 89.4706 19.9704 89.4706 44.6052Z" stroke-width="30" stroke-miterlimit="10" transform="translate(223.765 490.79)" stroke="#404040"/>
</g>
<g id="Vector_2">
<path d="M 89.4706 44.6052C 89.4706 69.24 69.4419 89.2105 44.7353 89.2105C 20.0287 89.2105 0 69.24 0 44.6052C 0 19.9704 20.0287 0 44.7353 0C 69.4419 0 89.4706 19.9704 89.4706 44.6052Z" stroke-width="30" stroke-miterlimit="10" transform="translate(223.765 15)" stroke="#404040"/>
</g>
<g id="Vector_3">
<path d="M 89.4706 44.6052C 89.4706 69.24 69.4419 89.2105 44.7353 89.2105C 20.0287 89.2105 0 69.24 0 44.6052C 0 19.9704 20.0287 0 44.7353 0C 69.4419 0 89.4706 19.9704 89.4706 44.6052Z" stroke-width="30" stroke-miterlimit="10" transform="translate(223.765 252.895)" stroke="#404040"/>
</g>
<g id="Vector_4">
<path d="M 89.4706 44.6052C 89.4706 69.24 69.4419 89.2105 44.7353 89.2105C 20.0287 89.2105 0 69.24 0 44.6052C 0 19.9704 20.0287 0 44.7353 0C 69.4419 0 89.4706 19.9704 89.4706 44.6052Z" stroke-width="30" stroke-miterlimit="10" transform="translate(15 371.842)" stroke="#404040"/>
</g>
<g id="Vector_5">
<path d="M 89.4706 44.6052C 89.4706 69.24 69.4419 89.2105 44.7353 89.2105C 20.0287 89.2105 0 69.24 0 44.6052C 0 19.9704 20.0287 0 44.7353 0C 69.4419 0 89.4706 19.9704 89.4706 44.6052Z" stroke-width="30" stroke-miterlimit="10" transform="translate(15 133.947)" stroke="#404040"/>
</g>
<g id="Vector_6">
<path d="M 5.68839e-06 77.3157L 131.223 -5.67185e-06" stroke-width="30" stroke-miterlimit="10" transform="translate(307.272 437.261)" stroke="#404040"/>
</g>
<g id="Vector_7">
<path d="M 5.68839e-06 1.41796e-06L 131.223 77.3158" stroke-width="30" stroke-miterlimit="10" transform="translate(307.272 80.4197)" stroke="#404040"/>
</g>
<g id="Vector_8">
<path d="M -1.4221e-06 77.3158L 131.223 1.41796e-06" stroke-width="30" stroke-miterlimit="10" transform="translate(98.5073 80.4197)" stroke="#404040"/>
</g>
<g id="Vector_9">
<path d="M 0 148.684L 0 0" stroke-width="30" stroke-miterlimit="10" transform="translate(59.7352 223.158)" stroke="#404040"/>
</g>
<g id="Vector_10">
<path d="M 131.223 77.3157L -1.4221e-06 -5.67185e-06" stroke-width="30" stroke-miterlimit="10" transform="translate(98.5073 437.261)" stroke="#404040"/>
</g>
<g id="Vector_11">
<path d="M 0 148.892L 0 0" stroke-width="30" stroke-miterlimit="10" transform="translate(268.5 342.365)" stroke="#404040"/>
</g>
<g id="Vector_12">
<path d="M 131.223 -5.67185e-06L -1.4221e-06 77.3158" stroke-width="30" stroke-miterlimit="10" transform="translate(98.5073 318.315)" stroke="#404040"/>
</g>
<g id="Vector_13">
<path d="M 5.68839e-06 -5.67185e-06L 131.223 77.3158" stroke-width="30" stroke-miterlimit="10" transform="translate(307.272 318.315)" stroke="#404040"/>
</g>
<g id="Vector_14">
<path d="M 5.68839e-06 77.3158L 131.223 -5.67185e-06" stroke-width="30" stroke-miterlimit="10" transform="translate(307.272 199.367)" stroke="#404040"/>
</g>
<g id="Vector_15">
<path d="M 0 148.684L 0 0" stroke-width="30" stroke-miterlimit="10" transform="translate(268.5 104.21)" stroke="#404040"/>
</g>
<g id="Vector_16">
<path d="M 131.223 77.3158L -1.4221e-06 -5.67185e-06" stroke-width="30" stroke-miterlimit="10" transform="translate(98.5073 199.367)" stroke="#404040"/>
</g>
</g>
</g>
</svg>

